<svg width="578" height="279" viewBox="0 0 578 279" fill="none" xmlns="http://www.w3.org/2000/svg">
<path d="M576.624 177.214C576.974 176.463 576.648 175.571 575.897 175.222L563.658 169.525C562.907 169.175 562.015 169.501 561.665 170.252C561.315 171.003 561.641 171.895 562.392 172.245L573.271 177.308L568.208 188.188C567.858 188.939 568.184 189.831 568.935 190.181C569.686 190.53 570.578 190.205 570.927 189.454L576.624 177.214ZM32.6891 4.75409C121.784 157.954 257.658 201.263 371.133 206.265C427.855 208.765 479.001 201.7 515.96 194.013C534.443 190.168 549.385 186.167 559.712 183.126C564.875 181.605 568.885 180.323 571.608 179.421C572.969 178.97 574.008 178.613 574.709 178.369C575.059 178.247 575.325 178.153 575.504 178.089C575.593 178.057 575.661 178.033 575.707 178.017C575.73 178.008 575.747 178.002 575.759 177.998C575.765 177.995 575.77 177.994 575.773 177.993C575.776 177.991 575.778 177.991 575.264 176.582C574.75 175.172 574.749 175.173 574.747 175.173C574.745 175.174 574.741 175.176 574.736 175.178C574.726 175.181 574.71 175.187 574.689 175.195C574.646 175.21 574.582 175.233 574.496 175.264C574.324 175.325 574.065 175.417 573.722 175.536C573.035 175.776 572.01 176.127 570.664 176.573C567.971 177.466 563.993 178.737 558.864 180.248C548.605 183.27 533.742 187.25 515.349 191.075C478.559 198.727 427.672 205.754 371.265 203.268C258.484 198.296 123.719 155.314 35.2824 3.24591L32.6891 4.75409Z" fill="black"/>
</svg>
