<svg width="215" height="230" viewBox="0 0 215 230" fill="none" xmlns="http://www.w3.org/2000/svg">
<circle cx="94.5" cy="94.5" r="93" stroke="black" stroke-width="3"/>
<path d="M18.888 92.32C18.44 92.32 18.048 92.2827 17.712 92.208C17.376 92.152 17.0773 92.068 16.816 91.956V89.828C17.1147 89.9027 17.432 89.968 17.768 90.024C18.104 90.08 18.4587 90.108 18.832 90.108C19.2987 90.108 19.7373 90.0147 20.148 89.828C20.5773 89.6413 20.9227 89.3147 21.184 88.848C21.4453 88.3813 21.576 87.728 21.576 86.888V67.008H24.096V86.692C24.096 88.6147 23.62 90.0333 22.668 90.948C21.716 91.8627 20.456 92.32 18.888 92.32ZM41.5803 71.992V87H39.5643L39.2003 85.012H39.0883C38.6029 85.796 37.9309 86.3747 37.0723 86.748C36.2136 87.1027 35.2989 87.28 34.3283 87.28C32.5176 87.28 31.1549 86.8507 30.2403 85.992C29.3256 85.1147 28.8683 83.724 28.8683 81.82V71.992H31.3603V81.652C31.3603 84.0413 32.4709 85.236 34.6923 85.236C36.3536 85.236 37.5016 84.7693 38.1363 83.836C38.7896 82.9027 39.1163 81.5587 39.1163 79.804V71.992H41.5803ZM53.5688 71.712C55.3608 71.712 56.7142 72.1507 57.6288 73.028C58.5435 73.8867 59.0008 75.2867 59.0008 77.228V87H56.5648V77.396C56.5648 74.988 55.4448 73.784 53.2048 73.784C51.5435 73.784 50.3955 74.2507 49.7608 75.184C49.1262 76.1173 48.8088 77.4613 48.8088 79.216V87H46.3448V71.992H48.3328L48.6968 74.036H48.8368C49.3222 73.252 49.9942 72.6733 50.8528 72.3C51.7115 71.908 52.6168 71.712 53.5688 71.712ZM64.9134 66.364C65.2868 66.364 65.6134 66.4947 65.8934 66.756C66.1921 66.9987 66.3414 67.3907 66.3414 67.932C66.3414 68.4547 66.1921 68.8467 65.8934 69.108C65.6134 69.3693 65.2868 69.5 64.9134 69.5C64.5028 69.5 64.1574 69.3693 63.8774 69.108C63.5974 68.8467 63.4574 68.4547 63.4574 67.932C63.4574 67.3907 63.5974 66.9987 63.8774 66.756C64.1574 66.4947 64.5028 66.364 64.9134 66.364ZM66.1174 71.992V87H63.6534V71.992H66.1174ZM83.9202 79.468C83.9202 81.9507 83.2855 83.8733 82.0162 85.236C80.7655 86.5987 79.0669 87.28 76.9202 87.28C75.5949 87.28 74.4095 86.9813 73.3642 86.384C72.3375 85.768 71.5255 84.8813 70.9282 83.724C70.3309 82.548 70.0322 81.1293 70.0322 79.468C70.0322 76.9853 70.6575 75.072 71.9082 73.728C73.1589 72.384 74.8575 71.712 77.0042 71.712C78.3669 71.712 79.5615 72.02 80.5882 72.636C81.6335 73.2333 82.4455 74.1107 83.0242 75.268C83.6215 76.4067 83.9202 77.8067 83.9202 79.468ZM72.5802 79.468C72.5802 81.2413 72.9255 82.6507 73.6162 83.696C74.3255 84.7227 75.4455 85.236 76.9762 85.236C78.4882 85.236 79.5989 84.7227 80.3082 83.696C81.0175 82.6507 81.3722 81.2413 81.3722 79.468C81.3722 77.6947 81.0175 76.304 80.3082 75.296C79.5989 74.288 78.4789 73.784 76.9482 73.784C75.4175 73.784 74.3069 74.288 73.6162 75.296C72.9255 76.304 72.5802 77.6947 72.5802 79.468ZM94.8253 71.712C95.1053 71.712 95.404 71.7307 95.7213 71.768C96.0573 71.7867 96.3466 71.824 96.5893 71.88L96.2813 74.148C96.0386 74.092 95.768 74.0453 95.4693 74.008C95.1893 73.9707 94.9186 73.952 94.6573 73.952C93.892 73.952 93.1733 74.1667 92.5013 74.596C91.8293 75.0067 91.288 75.5947 90.8773 76.36C90.4853 77.1067 90.2893 77.984 90.2893 78.992V87H87.8253V71.992H89.8413L90.1213 74.736H90.2333C90.7186 73.9147 91.344 73.2053 92.1093 72.608C92.8746 72.0107 93.78 71.712 94.8253 71.712ZM113.994 67.008C116.476 67.008 118.306 67.484 119.482 68.436C120.676 69.3693 121.274 70.788 121.274 72.692C121.274 73.756 121.078 74.6427 120.686 75.352C120.294 76.0613 119.79 76.6307 119.174 77.06C118.576 77.4707 117.942 77.7973 117.27 78.04L122.758 87H119.818L114.974 78.74H110.998V87H108.478V67.008H113.994ZM113.854 69.192H110.998V76.612H113.994C115.618 76.612 116.803 76.2947 117.55 75.66C118.296 75.0067 118.67 74.0547 118.67 72.804C118.67 71.4973 118.278 70.5733 117.494 70.032C116.71 69.472 115.496 69.192 113.854 69.192ZM131.356 71.712C132.644 71.712 133.745 71.992 134.66 72.552C135.593 73.112 136.302 73.9053 136.788 74.932C137.292 75.94 137.544 77.1253 137.544 78.488V79.972H127.268C127.305 81.6707 127.734 82.968 128.556 83.864C129.396 84.7413 130.562 85.18 132.056 85.18C133.008 85.18 133.848 85.096 134.576 84.928C135.322 84.7413 136.088 84.48 136.872 84.144V86.3C136.106 86.636 135.35 86.8787 134.604 87.028C133.857 87.196 132.97 87.28 131.944 87.28C130.525 87.28 129.265 86.9907 128.164 86.412C127.081 85.8333 126.232 84.9747 125.616 83.836C125.018 82.6787 124.72 81.2693 124.72 79.608C124.72 77.9653 124.99 76.556 125.532 75.38C126.092 74.204 126.866 73.2987 127.856 72.664C128.864 72.0293 130.03 71.712 131.356 71.712ZM131.328 73.728C130.152 73.728 129.218 74.1107 128.528 74.876C127.856 75.6227 127.454 76.668 127.324 78.012H134.968C134.949 76.7427 134.65 75.716 134.072 74.932C133.493 74.1293 132.578 73.728 131.328 73.728ZM147.048 71.74C148.878 71.74 150.231 72.1413 151.108 72.944C151.986 73.7467 152.424 75.0253 152.424 76.78V87H150.632L150.156 84.872H150.044C149.391 85.6933 148.7 86.3 147.972 86.692C147.263 87.084 146.274 87.28 145.004 87.28C143.642 87.28 142.512 86.9253 141.616 86.216C140.72 85.488 140.272 84.3587 140.272 82.828C140.272 81.3347 140.86 80.1867 142.036 79.384C143.212 78.5627 145.023 78.1147 147.468 78.04L150.016 77.956V77.06C150.016 75.8093 149.746 74.9413 149.204 74.456C148.663 73.9707 147.898 73.728 146.908 73.728C146.124 73.728 145.378 73.8493 144.668 74.092C143.959 74.316 143.296 74.5773 142.68 74.876L141.924 73.028C142.578 72.6733 143.352 72.3747 144.248 72.132C145.144 71.8707 146.078 71.74 147.048 71.74ZM149.988 79.664L147.776 79.748C145.91 79.8227 144.612 80.1213 143.884 80.644C143.175 81.1667 142.82 81.904 142.82 82.856C142.82 83.696 143.072 84.312 143.576 84.704C144.099 85.096 144.762 85.292 145.564 85.292C146.834 85.292 147.888 84.9467 148.728 84.256C149.568 83.5467 149.988 82.464 149.988 81.008V79.664ZM163.08 87.28C161.754 87.28 160.569 87.0093 159.524 86.468C158.497 85.9267 157.685 85.0867 157.088 83.948C156.509 82.8093 156.22 81.3533 156.22 79.58C156.22 77.732 156.528 76.2293 157.144 75.072C157.76 73.9147 158.59 73.0653 159.636 72.524C160.7 71.9827 161.904 71.712 163.248 71.712C164.013 71.712 164.75 71.796 165.46 71.964C166.169 72.1133 166.748 72.3 167.196 72.524L166.44 74.568C165.992 74.4 165.469 74.2413 164.872 74.092C164.274 73.9427 163.714 73.868 163.192 73.868C160.242 73.868 158.768 75.7627 158.768 79.552C158.768 81.3627 159.122 82.7533 159.832 83.724C160.56 84.676 161.633 85.152 163.052 85.152C163.873 85.152 164.592 85.068 165.208 84.9C165.842 84.732 166.421 84.5267 166.944 84.284V86.468C166.44 86.7293 165.88 86.9253 165.264 87.056C164.666 87.2053 163.938 87.28 163.08 87.28ZM175.525 85.264C175.898 85.264 176.281 85.236 176.673 85.18C177.065 85.1053 177.382 85.0307 177.625 84.956V86.832C177.363 86.9627 176.99 87.0653 176.505 87.14C176.019 87.2333 175.553 87.28 175.105 87.28C174.321 87.28 173.593 87.1493 172.921 86.888C172.267 86.608 171.735 86.132 171.325 85.46C170.914 84.788 170.709 83.8453 170.709 82.632V73.896H168.581V72.72L170.737 71.74L171.717 68.548H173.173V71.992H177.513V73.896H173.173V82.576C173.173 83.4907 173.387 84.172 173.817 84.62C174.265 85.0493 174.834 85.264 175.525 85.264ZM37.732 117.808C37.732 121.187 36.808 123.735 34.96 125.452C33.1307 127.151 30.5733 128 27.288 128H21.716V108.008H27.876C29.892 108.008 31.6373 108.381 33.112 109.128C34.5867 109.875 35.7253 110.976 36.528 112.432C37.3307 113.869 37.732 115.661 37.732 117.808ZM35.072 117.892C35.072 115.223 34.4093 113.272 33.084 112.04C31.7773 110.789 29.92 110.164 27.512 110.164H24.236V125.844H26.952C32.3653 125.844 35.072 123.193 35.072 117.892ZM47.6291 112.712C48.9171 112.712 50.0185 112.992 50.9331 113.552C51.8665 114.112 52.5758 114.905 53.0611 115.932C53.5651 116.94 53.8171 118.125 53.8171 119.488V120.972H43.5411C43.5785 122.671 44.0078 123.968 44.8291 124.864C45.6691 125.741 46.8358 126.18 48.3291 126.18C49.2811 126.18 50.1211 126.096 50.8491 125.928C51.5958 125.741 52.3611 125.48 53.1451 125.144V127.3C52.3798 127.636 51.6238 127.879 50.8771 128.028C50.1305 128.196 49.2438 128.28 48.2171 128.28C46.7985 128.28 45.5385 127.991 44.4371 127.412C43.3545 126.833 42.5051 125.975 41.8891 124.836C41.2918 123.679 40.9931 122.269 40.9931 120.608C40.9931 118.965 41.2638 117.556 41.8051 116.38C42.3651 115.204 43.1398 114.299 44.1291 113.664C45.1371 113.029 46.3038 112.712 47.6291 112.712ZM47.6011 114.728C46.4251 114.728 45.4918 115.111 44.8011 115.876C44.1291 116.623 43.7278 117.668 43.5971 119.012H51.2411C51.2225 117.743 50.9238 116.716 50.3451 115.932C49.7665 115.129 48.8518 114.728 47.6011 114.728ZM60.3949 128L54.7109 112.992H57.3429L60.5349 121.84C60.6843 122.251 60.8429 122.708 61.0109 123.212C61.1789 123.716 61.3283 124.201 61.4589 124.668C61.5896 125.116 61.6829 125.499 61.7389 125.816H61.8509C61.9256 125.499 62.0283 125.107 62.1589 124.64C62.3083 124.173 62.4669 123.688 62.6349 123.184C62.8216 122.68 62.9803 122.232 63.1109 121.84L66.3029 112.992H68.9349L63.2229 128H60.3949ZM77.1057 112.712C78.3937 112.712 79.495 112.992 80.4097 113.552C81.343 114.112 82.0524 114.905 82.5377 115.932C83.0417 116.94 83.2937 118.125 83.2937 119.488V120.972H73.0177C73.055 122.671 73.4844 123.968 74.3057 124.864C75.1457 125.741 76.3124 126.18 77.8057 126.18C78.7577 126.18 79.5977 126.096 80.3257 125.928C81.0724 125.741 81.8377 125.48 82.6217 125.144V127.3C81.8564 127.636 81.1004 127.879 80.3537 128.028C79.607 128.196 78.7204 128.28 77.6937 128.28C76.275 128.28 75.015 127.991 73.9137 127.412C72.831 126.833 71.9817 125.975 71.3657 124.836C70.7684 123.679 70.4697 122.269 70.4697 120.608C70.4697 118.965 70.7404 117.556 71.2817 116.38C71.8417 115.204 72.6164 114.299 73.6057 113.664C74.6137 113.029 75.7804 112.712 77.1057 112.712ZM77.0777 114.728C75.9017 114.728 74.9684 115.111 74.2777 115.876C73.6057 116.623 73.2044 117.668 73.0737 119.012H80.7177C80.699 117.743 80.4004 116.716 79.8217 115.932C79.243 115.129 78.3284 114.728 77.0777 114.728ZM89.5784 128H87.1144V106.72H89.5784V128ZM107.381 120.468C107.381 122.951 106.746 124.873 105.477 126.236C104.226 127.599 102.528 128.28 100.381 128.28C99.0558 128.28 97.8705 127.981 96.8251 127.384C95.7985 126.768 94.9865 125.881 94.3891 124.724C93.7918 123.548 93.4931 122.129 93.4931 120.468C93.4931 117.985 94.1185 116.072 95.3691 114.728C96.6198 113.384 98.3185 112.712 100.465 112.712C101.828 112.712 103.022 113.02 104.049 113.636C105.094 114.233 105.906 115.111 106.485 116.268C107.082 117.407 107.381 118.807 107.381 120.468ZM96.0411 120.468C96.0411 122.241 96.3865 123.651 97.0771 124.696C97.7865 125.723 98.9065 126.236 100.437 126.236C101.949 126.236 103.06 125.723 103.769 124.696C104.478 123.651 104.833 122.241 104.833 120.468C104.833 118.695 104.478 117.304 103.769 116.296C103.06 115.288 101.94 114.784 100.409 114.784C98.8785 114.784 97.7678 115.288 97.0771 116.296C96.3865 117.304 96.0411 118.695 96.0411 120.468ZM118.426 112.712C120.274 112.712 121.758 113.356 122.878 114.644C124.017 115.932 124.586 117.873 124.586 120.468C124.586 123.025 124.017 124.967 122.878 126.292C121.758 127.617 120.265 128.28 118.398 128.28C117.241 128.28 116.28 128.065 115.514 127.636C114.768 127.188 114.18 126.675 113.75 126.096H113.582C113.62 126.413 113.657 126.815 113.694 127.3C113.732 127.785 113.75 128.205 113.75 128.56V134.72H111.286V112.992H113.302L113.638 115.036H113.75C114.198 114.383 114.786 113.832 115.514 113.384C116.242 112.936 117.213 112.712 118.426 112.712ZM117.978 114.784C116.448 114.784 115.365 115.213 114.73 116.072C114.114 116.931 113.788 118.237 113.75 119.992V120.468C113.75 122.316 114.049 123.744 114.646 124.752C115.262 125.741 116.392 126.236 118.034 126.236C118.949 126.236 119.696 125.984 120.274 125.48C120.872 124.976 121.31 124.295 121.59 123.436C121.889 122.559 122.038 121.56 122.038 120.44C122.038 118.723 121.702 117.351 121.03 116.324C120.377 115.297 119.36 114.784 117.978 114.784ZM134.309 112.712C135.597 112.712 136.698 112.992 137.613 113.552C138.546 114.112 139.255 114.905 139.741 115.932C140.245 116.94 140.497 118.125 140.497 119.488V120.972H130.221C130.258 122.671 130.687 123.968 131.509 124.864C132.349 125.741 133.515 126.18 135.009 126.18C135.961 126.18 136.801 126.096 137.529 125.928C138.275 125.741 139.041 125.48 139.825 125.144V127.3C139.059 127.636 138.303 127.879 137.557 128.028C136.81 128.196 135.923 128.28 134.897 128.28C133.478 128.28 132.218 127.991 131.117 127.412C130.034 126.833 129.185 125.975 128.569 124.836C127.971 123.679 127.673 122.269 127.673 120.608C127.673 118.965 127.943 117.556 128.485 116.38C129.045 115.204 129.819 114.299 130.809 113.664C131.817 113.029 132.983 112.712 134.309 112.712ZM134.281 114.728C133.105 114.728 132.171 115.111 131.481 115.876C130.809 116.623 130.407 117.668 130.277 119.012H137.921C137.902 117.743 137.603 116.716 137.025 115.932C136.446 115.129 135.531 114.728 134.281 114.728ZM151.318 112.712C151.598 112.712 151.896 112.731 152.214 112.768C152.55 112.787 152.839 112.824 153.082 112.88L152.774 115.148C152.531 115.092 152.26 115.045 151.962 115.008C151.682 114.971 151.411 114.952 151.15 114.952C150.384 114.952 149.666 115.167 148.994 115.596C148.322 116.007 147.78 116.595 147.37 117.36C146.978 118.107 146.782 118.984 146.782 119.992V128H144.318V112.992H146.334L146.614 115.736H146.726C147.211 114.915 147.836 114.205 148.602 113.608C149.367 113.011 150.272 112.712 151.318 112.712Z" fill="black"/>
</svg>
