<svg width="453" height="453" viewBox="0 0 453 453" fill="none" xmlns="http://www.w3.org/2000/svg">
<g filter="url(#filter0_d)">
<circle cx="226.5" cy="222.5" r="220" stroke="black" stroke-width="5"/>
</g>
<path d="M147.965 94.8125H154.75V131.059C154.75 135.957 153.273 139.789 150.32 142.555C147.391 145.32 143.477 146.703 138.578 146.703C133.492 146.703 129.531 145.402 126.695 142.801C123.859 140.199 122.441 136.555 122.441 131.867H129.191C129.191 134.797 129.988 137.082 131.582 138.723C133.199 140.363 135.531 141.184 138.578 141.184C141.367 141.184 143.617 140.305 145.328 138.547C147.062 136.789 147.941 134.328 147.965 131.164V94.8125ZM188.711 142.238C186.18 145.215 182.465 146.703 177.566 146.703C173.512 146.703 170.418 145.531 168.285 143.188C166.176 140.82 165.109 137.328 165.086 132.711V107.961H171.59V132.535C171.59 138.301 173.934 141.184 178.621 141.184C183.59 141.184 186.895 139.332 188.535 135.629V107.961H195.039V146H188.852L188.711 142.238ZM211.105 107.961L211.316 112.742C214.223 109.086 218.02 107.258 222.707 107.258C230.746 107.258 234.801 111.793 234.871 120.863V146H228.367V120.828C228.344 118.086 227.711 116.059 226.469 114.746C225.25 113.434 223.34 112.777 220.738 112.777C218.629 112.777 216.777 113.34 215.184 114.465C213.59 115.59 212.348 117.066 211.457 118.895V146H204.953V107.961H211.105ZM251.746 146H245.242V107.961H251.746V146ZM244.715 97.8711C244.715 96.8164 245.031 95.9258 245.664 95.1992C246.32 94.4727 247.281 94.1094 248.547 94.1094C249.812 94.1094 250.773 94.4727 251.43 95.1992C252.086 95.9258 252.414 96.8164 252.414 97.8711C252.414 98.9258 252.086 99.8047 251.43 100.508C250.773 101.211 249.812 101.562 248.547 101.562C247.281 101.562 246.32 101.211 245.664 100.508C245.031 99.8047 244.715 98.9258 244.715 97.8711ZM260.465 126.629C260.465 122.902 261.191 119.551 262.645 116.574C264.121 113.598 266.16 111.301 268.762 109.684C271.387 108.066 274.375 107.258 277.727 107.258C282.906 107.258 287.09 109.051 290.277 112.637C293.488 116.223 295.094 120.992 295.094 126.945V127.402C295.094 131.105 294.379 134.434 292.949 137.387C291.543 140.316 289.516 142.602 286.867 144.242C284.242 145.883 281.219 146.703 277.797 146.703C272.641 146.703 268.457 144.91 265.246 141.324C262.059 137.738 260.465 132.992 260.465 127.086V126.629ZM267.004 127.402C267.004 131.621 267.977 135.008 269.922 137.562C271.891 140.117 274.516 141.395 277.797 141.395C281.102 141.395 283.727 140.105 285.672 137.527C287.617 134.926 288.59 131.293 288.59 126.629C288.59 122.457 287.594 119.082 285.602 116.504C283.633 113.902 281.008 112.602 277.727 112.602C274.516 112.602 271.926 113.879 269.957 116.434C267.988 118.988 267.004 122.645 267.004 127.402ZM321.637 113.797C320.652 113.633 319.586 113.551 318.438 113.551C314.172 113.551 311.277 115.367 309.754 119V146H303.25V107.961H309.578L309.684 112.355C311.816 108.957 314.84 107.258 318.754 107.258C320.02 107.258 320.98 107.422 321.637 107.75V113.797ZM163.152 209.293H151.129V230H144.344V178.812H161.289C167.055 178.812 171.484 180.125 174.578 182.75C177.695 185.375 179.254 189.195 179.254 194.211C179.254 197.398 178.387 200.176 176.652 202.543C174.941 204.91 172.551 206.68 169.48 207.852L181.504 229.578V230H174.262L163.152 209.293ZM151.129 203.773H161.5C164.852 203.773 167.512 202.906 169.48 201.172C171.473 199.438 172.469 197.117 172.469 194.211C172.469 191.047 171.52 188.621 169.621 186.934C167.746 185.246 165.027 184.391 161.465 184.367H151.129V203.773ZM203.512 230.703C198.355 230.703 194.16 229.016 190.926 225.641C187.691 222.242 186.074 217.707 186.074 212.035V210.84C186.074 207.066 186.789 203.703 188.219 200.75C189.672 197.773 191.688 195.453 194.266 193.789C196.867 192.102 199.68 191.258 202.703 191.258C207.648 191.258 211.492 192.887 214.234 196.145C216.977 199.402 218.348 204.066 218.348 210.137V212.844H192.578C192.672 216.594 193.762 219.629 195.848 221.949C197.957 224.246 200.629 225.395 203.863 225.395C206.16 225.395 208.105 224.926 209.699 223.988C211.293 223.051 212.688 221.809 213.883 220.262L217.855 223.355C214.668 228.254 209.887 230.703 203.512 230.703ZM202.703 196.602C200.078 196.602 197.875 197.562 196.094 199.484C194.312 201.383 193.211 204.055 192.789 207.5H211.844V207.008C211.656 203.703 210.766 201.148 209.172 199.344C207.578 197.516 205.422 196.602 202.703 196.602ZM249.391 230C249.016 229.25 248.711 227.914 248.477 225.992C245.453 229.133 241.844 230.703 237.648 230.703C233.898 230.703 230.816 229.648 228.402 227.539C226.012 225.406 224.816 222.711 224.816 219.453C224.816 215.492 226.316 212.422 229.316 210.242C232.34 208.039 236.582 206.938 242.043 206.938H248.371V203.949C248.371 201.676 247.691 199.871 246.332 198.535C244.973 197.176 242.969 196.496 240.32 196.496C238 196.496 236.055 197.082 234.484 198.254C232.914 199.426 232.129 200.844 232.129 202.508H225.59C225.59 200.609 226.258 198.781 227.594 197.023C228.953 195.242 230.781 193.836 233.078 192.805C235.398 191.773 237.941 191.258 240.707 191.258C245.09 191.258 248.523 192.359 251.008 194.562C253.492 196.742 254.781 199.754 254.875 203.598V221.105C254.875 224.598 255.32 227.375 256.211 229.438V230H249.391ZM238.598 225.043C240.637 225.043 242.57 224.516 244.398 223.461C246.227 222.406 247.551 221.035 248.371 219.348V211.543H243.273C235.305 211.543 231.32 213.875 231.32 218.539C231.32 220.578 232 222.172 233.359 223.32C234.719 224.469 236.465 225.043 238.598 225.043ZM280.328 225.395C282.648 225.395 284.676 224.691 286.41 223.285C288.145 221.879 289.105 220.121 289.293 218.012H295.445C295.328 220.191 294.578 222.266 293.195 224.234C291.812 226.203 289.961 227.773 287.641 228.945C285.344 230.117 282.906 230.703 280.328 230.703C275.148 230.703 271.023 228.98 267.953 225.535C264.906 222.066 263.383 217.332 263.383 211.332V210.242C263.383 206.539 264.062 203.246 265.422 200.363C266.781 197.48 268.727 195.242 271.258 193.648C273.812 192.055 276.824 191.258 280.293 191.258C284.559 191.258 288.098 192.535 290.91 195.09C293.746 197.645 295.258 200.961 295.445 205.039H289.293C289.105 202.578 288.168 200.562 286.48 198.992C284.816 197.398 282.754 196.602 280.293 196.602C276.988 196.602 274.422 197.797 272.594 200.188C270.789 202.555 269.887 205.988 269.887 210.488V211.719C269.887 216.102 270.789 219.477 272.594 221.844C274.398 224.211 276.977 225.395 280.328 225.395ZM311.582 182.75V191.961H318.684V196.988H311.582V220.578C311.582 222.102 311.898 223.25 312.531 224.023C313.164 224.773 314.242 225.148 315.766 225.148C316.516 225.148 317.547 225.008 318.859 224.727V230C317.148 230.469 315.484 230.703 313.867 230.703C310.961 230.703 308.77 229.824 307.293 228.066C305.816 226.309 305.078 223.812 305.078 220.578V196.988H298.152V191.961H305.078V182.75H311.582ZM72.9414 314V262.812H87.3906C91.8438 262.812 95.7812 263.797 99.2031 265.766C102.625 267.734 105.262 270.535 107.113 274.168C108.988 277.801 109.938 281.973 109.961 286.684V289.953C109.961 294.781 109.023 299.012 107.148 302.645C105.297 306.277 102.637 309.066 99.168 311.012C95.7227 312.957 91.7031 313.953 87.1094 314H72.9414ZM79.6914 268.367V308.48H86.793C91.9961 308.48 96.0391 306.863 98.9219 303.629C101.828 300.395 103.281 295.789 103.281 289.812V286.824C103.281 281.012 101.91 276.5 99.168 273.289C96.4492 270.055 92.582 268.414 87.5664 268.367H79.6914ZM134.957 314.703C129.801 314.703 125.605 313.016 122.371 309.641C119.137 306.242 117.52 301.707 117.52 296.035V294.84C117.52 291.066 118.234 287.703 119.664 284.75C121.117 281.773 123.133 279.453 125.711 277.789C128.312 276.102 131.125 275.258 134.148 275.258C139.094 275.258 142.938 276.887 145.68 280.145C148.422 283.402 149.793 288.066 149.793 294.137V296.844H124.023C124.117 300.594 125.207 303.629 127.293 305.949C129.402 308.246 132.074 309.395 135.309 309.395C137.605 309.395 139.551 308.926 141.145 307.988C142.738 307.051 144.133 305.809 145.328 304.262L149.301 307.355C146.113 312.254 141.332 314.703 134.957 314.703ZM134.148 280.602C131.523 280.602 129.32 281.562 127.539 283.484C125.758 285.383 124.656 288.055 124.234 291.5H143.289V291.008C143.102 287.703 142.211 285.148 140.617 283.344C139.023 281.516 136.867 280.602 134.148 280.602ZM169.41 305.176L178.832 275.961H185.477L171.836 314H166.879L153.098 275.961H159.742L169.41 305.176ZM207.027 314.703C201.871 314.703 197.676 313.016 194.441 309.641C191.207 306.242 189.59 301.707 189.59 296.035V294.84C189.59 291.066 190.305 287.703 191.734 284.75C193.188 281.773 195.203 279.453 197.781 277.789C200.383 276.102 203.195 275.258 206.219 275.258C211.164 275.258 215.008 276.887 217.75 280.145C220.492 283.402 221.863 288.066 221.863 294.137V296.844H196.094C196.188 300.594 197.277 303.629 199.363 305.949C201.473 308.246 204.145 309.395 207.379 309.395C209.676 309.395 211.621 308.926 213.215 307.988C214.809 307.051 216.203 305.809 217.398 304.262L221.371 307.355C218.184 312.254 213.402 314.703 207.027 314.703ZM206.219 280.602C203.594 280.602 201.391 281.562 199.609 283.484C197.828 285.383 196.727 288.055 196.305 291.5H215.359V291.008C215.172 287.703 214.281 285.148 212.688 283.344C211.094 281.516 208.938 280.602 206.219 280.602ZM236.488 314H229.984V260H236.488V314ZM245.207 294.629C245.207 290.902 245.934 287.551 247.387 284.574C248.863 281.598 250.902 279.301 253.504 277.684C256.129 276.066 259.117 275.258 262.469 275.258C267.648 275.258 271.832 277.051 275.02 280.637C278.23 284.223 279.836 288.992 279.836 294.945V295.402C279.836 299.105 279.121 302.434 277.691 305.387C276.285 308.316 274.258 310.602 271.609 312.242C268.984 313.883 265.961 314.703 262.539 314.703C257.383 314.703 253.199 312.91 249.988 309.324C246.801 305.738 245.207 300.992 245.207 295.086V294.629ZM251.746 295.402C251.746 299.621 252.719 303.008 254.664 305.562C256.633 308.117 259.258 309.395 262.539 309.395C265.844 309.395 268.469 308.105 270.414 305.527C272.359 302.926 273.332 299.293 273.332 294.629C273.332 290.457 272.336 287.082 270.344 284.504C268.375 281.902 265.75 280.602 262.469 280.602C259.258 280.602 256.668 281.879 254.699 284.434C252.73 286.988 251.746 290.645 251.746 295.402ZM320.125 295.402C320.125 301.191 318.801 305.855 316.152 309.395C313.504 312.934 309.918 314.703 305.395 314.703C300.777 314.703 297.145 313.238 294.496 310.309V328.625H287.992V275.961H293.934L294.25 280.18C296.898 276.898 300.578 275.258 305.289 275.258C309.859 275.258 313.469 276.98 316.117 280.426C318.789 283.871 320.125 288.664 320.125 294.805V295.402ZM313.621 294.664C313.621 290.375 312.707 286.988 310.879 284.504C309.051 282.02 306.543 280.777 303.355 280.777C299.418 280.777 296.465 282.523 294.496 286.016V304.191C296.441 307.66 299.418 309.395 303.426 309.395C306.543 309.395 309.016 308.164 310.844 305.703C312.695 303.219 313.621 299.539 313.621 294.664ZM344.207 314.703C339.051 314.703 334.855 313.016 331.621 309.641C328.387 306.242 326.77 301.707 326.77 296.035V294.84C326.77 291.066 327.484 287.703 328.914 284.75C330.367 281.773 332.383 279.453 334.961 277.789C337.562 276.102 340.375 275.258 343.398 275.258C348.344 275.258 352.188 276.887 354.93 280.145C357.672 283.402 359.043 288.066 359.043 294.137V296.844H333.273C333.367 300.594 334.457 303.629 336.543 305.949C338.652 308.246 341.324 309.395 344.559 309.395C346.855 309.395 348.801 308.926 350.395 307.988C351.988 307.051 353.383 305.809 354.578 304.262L358.551 307.355C355.363 312.254 350.582 314.703 344.207 314.703ZM343.398 280.602C340.773 280.602 338.57 281.562 336.789 283.484C335.008 285.383 333.906 288.055 333.484 291.5H352.539V291.008C352.352 287.703 351.461 285.148 349.867 283.344C348.273 281.516 346.117 280.602 343.398 280.602ZM384.988 281.797C384.004 281.633 382.938 281.551 381.789 281.551C377.523 281.551 374.629 283.367 373.105 287V314H366.602V275.961H372.93L373.035 280.355C375.168 276.957 378.191 275.258 382.105 275.258C383.371 275.258 384.332 275.422 384.988 275.75V281.797Z" fill="black"/>
<defs>
<filter id="filter0_d" x="0" y="0" width="453" height="453" filterUnits="userSpaceOnUse" color-interpolation-filters="sRGB">
<feFlood flood-opacity="0" result="BackgroundImageFix"/>
<feColorMatrix in="SourceAlpha" type="matrix" values="0 0 0 0 0 0 0 0 0 0 0 0 0 0 0 0 0 0 127 0"/>
<feOffset dy="4"/>
<feGaussianBlur stdDeviation="2"/>
<feColorMatrix type="matrix" values="0 0 0 0 0 0 0 0 0 0 0 0 0 0 0 0 0 0 0.25 0"/>
<feBlend mode="normal" in2="BackgroundImageFix" result="effect1_dropShadow"/>
<feBlend mode="normal" in="SourceGraphic" in2="effect1_dropShadow" result="shape"/>
</filter>
</defs>
</svg>
