<?xml version="1.0" encoding="iso-8859-1"?>
<!-- Generator: Adobe Illustrator 18.0.0, SVG Export Plug-In . SVG Version: 6.00 Build 0)  -->
<!DOCTYPE svg PUBLIC "-//W3C//DTD SVG 1.1//EN" "http://www.w3.org/Graphics/SVG/1.1/DTD/svg11.dtd">
<svg version="1.1" id="Capa_1" xmlns="http://www.w3.org/2000/svg" xmlns:xlink="http://www.w3.org/1999/xlink" x="0px" y="0px"
	 viewBox="0 0 451.483 451.483" style="enable-background:new 0 0 451.483 451.483;" xml:space="preserve">
<g>
	<path d="M394.724,372.082c-10.91-12.259-29.132-19.64-49.779-20.475c-2.027-5.78-2.187-17.714-1.735-25.486
		c3.7-3.904,15.574-17.434,21.038-35.531c1.453-4.812,2.797-21.087-16.053-68.177c-10.102-25.239-24.424-53.998-33.645-61.35
		c-14.361-11.452-46.93-10.857-57.398-10.34l-1.581-9.96c9.785-8.04,16.039-20.23,16.039-33.854V90.746
		c7.169-2.958,11.655-8.688,11.655-15.206V62.726c0-17.826-15.193-33.055-36.427-38.86c0.324-1.42,0.497-2.875,0.497-4.335
		c0-10.769-8.762-19.53-19.53-19.53c-10.769,0-19.53,8.762-19.53,19.53c0,1.46,0.173,2.916,0.497,4.335
		c-21.234,5.805-36.427,21.034-36.427,38.86V75.54c0,6.518,4.486,12.249,11.652,15.208v16.162c0,14.031,6.639,26.533,16.932,34.556
		l-1.473,9.275c-11.044-0.518-47.432-1.263-63.314,10.207c-10.157,7.336-25.961,36.091-37.118,61.335
		c-6.948,15.722-22.585,53.859-17.733,68.416c5.544,16.631,17.032,29.39,22.045,34.397c-2.813,4.307-10.262,14.025-26.475,26.185
		c-24.704,18.529-32.701,32.61-31.693,55.802c1.063,24.414,20.118,39.607,52.282,41.683c1.185,0.076,2.459,0.113,3.819,0.113
		c8.845,0,21.246-1.571,35.06-4.116l181.3,5.814c0,0,7.27,0.477,10.998,0.676c2.451,0.13,5.43,0.231,8.778,0.231
		c6.496,0,14.378-0.381,22.461-1.668c26.798-4.267,42.591-16.531,45.674-35.468C408.251,397.695,404.511,383.08,394.724,372.082z
		 M233.467,407.392c-4.079,2.525-10.905,5.472-19.43,8.549c16.228-21.981,24.015-45.26,26.338-53.116
		c6.864-0.665,13.431-1.668,19.19-3.132c-5.346,7.491-7.292,17.874-7.546,19.352c-0.376,2.177,1.085,4.246,3.262,4.621
		c2.184,0.381,4.246-1.085,4.621-3.262c0.684-3.961,3.934-16.064,9.713-19.596c1.698-1.037,3.457-1.218,5.54-0.566
		c10.689,3.339,22.058,1.696,35.222-0.208c7.019-1.016,14.264-2.064,22.123-2.467c17.181,11.569,20.854,16.886,21.057,21.636
		c-13.372-3.223-37.687-1.014-60.401,1.723c-2.375,0.286-4.279,0.517-5.555,0.643C273.854,382.944,242.691,401.682,233.467,407.392z
		 M340.768,225.386c11.869,29.65,18.227,54.925,15.822,62.892c-5.19,17.19-17.172,30.247-19.62,32.788l-26.39,12.315
		c-2.002,0.935-2.867,3.314-1.934,5.316c0.679,1.455,2.122,2.31,3.628,2.31c0.566,0,1.142-0.121,1.689-0.376l21.067-9.832
		c-0.099,4.799,0.001,11.33,0.9,17.095c0.142,0.913,0.041,0.293,0.196,1.706c-0.192-0.128-16.966,1.392-26.895,2.516
		c-12.248,1.387-22.735,3.289-31.69,0.489c-0.786-0.245-1.942-2.513-2.334-3.492c-4.191-10.478-9.773-18.493-12.91-22.545
		l47.974-48.896c0.796-0.811,1.209-1.923,1.137-3.057l-2.913-45.631c-0.142-2.205-2.053-3.867-4.247-3.737
		c-2.205,0.141-3.878,2.042-3.737,4.247l2.8,43.849l-48.254,49.182l-30.646,3.715c-2.193,0.266-3.755,2.259-3.489,4.452
		c0.267,2.192,2.256,3.768,4.452,3.489l29.882-3.622c2.286,2.857,7.169,9.469,11.174,18.351c-18.141,8.884-64.207,7.468-85.24,5.811
		l-0.182-10.487l33.081,0.943c0.043,0.001,0.085,0.002,0.127,0.002c2.151,0,3.929-1.71,3.996-3.875
		c0.069-2.208-1.665-4.054-3.873-4.123l-31.067-0.972c-0.028-0.001-1.305-0.001-2.224-0.002c7.183-15.944,5.959-37.96,5.325-45.039
		c1.614-1.348,3.126-2.703,4.56-4.062c9.931,7.854,22.197,12.152,34.953,12.152c31.103,0,56.406-25.304,56.406-56.406v-83.626
		c8.546,0.824,15.563,2.34,20.812,4.479l-2.559,17.894c-0.313,2.188,1.207,4.214,3.393,4.526c0.192,0.027,0.383,0.041,0.571,0.041
		c1.958,0,3.67-1.44,3.955-3.435l2.078-14.535C317.548,174.991,329.984,198.442,340.768,225.386z M173.261,358.87l-75.199,12.533
		l9.548-15.203c6.593,0.487,14.036,0.853,21.537,0.853c14.404,0,29.022-1.347,38.248-5.759c2.104-1.007,3.984-2.285,5.669-3.775
		L173.261,358.87z M216.277,19.53c0-6.357,5.173-11.53,11.53-11.53c6.357,0,11.53,5.173,11.53,11.53
		c0,0.915-0.109,1.809-0.316,2.676c-3.623-0.557-7.373-0.851-11.214-0.851c-3.841,0-7.591,0.293-11.214,0.851
		C216.385,21.339,216.277,20.445,216.277,19.53z M180.347,75.54V62.726c0-18.4,21.29-33.37,47.46-33.37
		c26.17,0,47.46,14.97,47.46,33.37V75.54c0,2.272-1.381,4.464-3.698,6.146c-0.449-10.32-8.96-18.583-19.389-18.583h-48.749
		c-10.428,0-18.94,8.264-19.389,18.583C181.727,80.004,180.347,77.812,180.347,75.54z M191.999,106.909v-7.193
		c4.194-3.612,9.646-5.5,15.204-5.191c7.202,0.393,12.845,6.565,12.845,14.053v2.436c0,2.209,1.791,4,4,4h6.049c2.209,0,4-1.791,4-4
		s-1.791-4-4-4h-2.102c-0.755-11.02-9.424-19.88-20.355-20.477c-5.481-0.298-10.891,0.957-15.641,3.525v-7.527
		c0-6.304,5.128-11.432,11.432-11.432h48.749c6.304,0,11.432,5.128,11.432,11.432v6.175c-8.763-4.038-19.491-2.479-26.7,4.731
		c-1.563,1.562-1.563,4.095,0,5.656c1.561,1.563,4.096,1.563,5.656,0c5.748-5.747,14.879-6.099,21.044-1.059v8.87
		c0,19.743-16.063,35.806-35.806,35.806C208.062,142.715,191.999,126.652,191.999,106.909z M227.806,150.715
		c7.379,0,14.334-1.842,20.441-5.078l2.19,13.802c0.879,5.531-0.703,11.148-4.341,15.409c-3.636,4.26-8.932,6.702-14.529,6.702
		h-6.52c-5.604,0-10.903-2.445-14.54-6.71c-3.635-4.261-5.213-9.873-4.33-15.402l2.116-13.325
		C214.173,149.051,220.797,150.715,227.806,150.715z M198.208,158.701c-1.073,7.672,1.171,15.419,6.212,21.33
		c5.16,6.049,12.678,9.519,20.627,9.519h6.52c7.942,0,15.456-3.466,20.614-9.508c5.05-5.917,7.298-13.675,6.222-21.36
		c3.599-0.153,9.377-0.286,15.889-0.007v84.178c0,26.691-21.715,48.406-48.406,48.406c-10.679,0-20.962-3.508-29.37-9.936
		c11.735-13.355,15.713-26.521,16.818-36.092c1.553-13.451-2.033-22.873-2.188-23.268c-0.798-2.052-3.104-3.063-5.161-2.276
		c-1.56,0.6-2.522,2.075-2.557,3.651c-4.396-11.764-14.655-22.24-15.205-22.797c-0.144-0.146-0.304-0.264-0.463-0.383
		c3.68-13.488,6.742-25.146,7.023-26.216c0.561-2.137-0.718-4.323-2.855-4.884c-2.135-0.561-4.322,0.717-4.884,2.854
		c-2.058,7.845-5.841,22.026-9.564,35.441v-48.559C186.052,158.349,193.793,158.521,198.208,158.701z M111.301,327.417
		c4.822-2.361,22.704-11.341,29.042-17.68c1.563-1.561,1.563-4.095,0-5.656c-1.561-1.563-4.096-1.563-5.656,0
		c-4.579,4.579-18.273,11.867-25.547,15.484c-4.382-4.384-15.224-16.3-20.257-31.396c-2.631-7.892,4.387-33.07,17.461-62.652
		c12.479-28.238,26.982-52.666,34.484-58.083c5.506-3.977,15.339-6.715,28.651-8.033v75.325c-0.673,2.055-1.234,3.627-1.64,4.54
		c-1.697,3.819-2.033,10.786-1.78,18.064c-6.702-0.484-13.114-0.495-19.159-0.184c-1.769-31.026,8.896-67.16,9.009-67.536
		c0.633-2.116-0.569-4.346-2.686-4.979c-2.117-0.632-4.346,0.568-4.979,2.686c-0.477,1.594-11.223,37.988-9.32,70.432
		c-25.037,2.543-41.988,10.156-42.908,10.585c-2.002,0.935-2.867,3.314-1.934,5.316c0.68,1.455,2.122,2.31,3.628,2.31
		c0.566,0,1.142-0.121,1.688-0.376c0.28-0.131,30.238-12.882,67.128-10.38c0.625,7.721,1.612,14.607,1.984,17.063
		c0.301,1.98,2.006,3.4,3.95,3.4c0.199,0,0.401-0.015,0.604-0.045c2.184-0.331,3.686-2.37,3.356-4.554
		c-1.809-11.943-3.752-32.971-1.271-38.553c0.975-2.193,2.617-7.3,4.547-13.788c3.312,5.14,7.215,12.893,7.215,20.901
		c0,2.209,1.791,4,4,4s4-1.791,4-4c0-13.757-8.812-26.203-12.377-30.677c0.903-3.172,1.826-6.467,2.742-9.767
		c4.879,5.713,12.125,15.93,12.125,23.958c0,2.209,1.791,4,4,4s4-1.791,4-4c0-0.331,0.163,0.614,0.235,1.494
		c0.952,11.769-1.775,32.324-25.962,51.674c-1.082,0.865-1.639,2.232-1.472,3.608c1.513,12.443,1.9,46.43-14.26,54.159
		c-8.527,4.077-24.642,5.699-46.612,4.682c-8.787-0.406-16.899-1.168-22.694-1.811C105.017,337.397,109.672,330.272,111.301,327.417
		z M97.966,440.782c-28.017-1.809-43.929-13.899-44.806-34.047c-0.893-20.54,5.767-32.002,28.502-49.054
		c1.665-1.249,3.236-2.472,4.733-3.673c2.302,0.313,6.651,0.866,12.254,1.418l-12.095,19.258c-0.837,1.333-0.814,3.034,0.059,4.345
		c0.749,1.125,2.005,1.782,3.328,1.782c0.219,0,0.438-0.018,0.658-0.055l87.379-14.563c1.766-0.294,3.085-1.719,3.3-3.451
		c6.31,0.473,18.585,1.231,32.41,1.231c5.863,0,12.003-0.139,18.085-0.491c-3.542,10.878-13.239,36.327-31.886,57.204
		C165.629,431.454,117.582,442.047,97.966,440.782z M237.678,414.194c5.854-3.624,11.51-6.952,16.82-9.915
		c-11.058,13.834-19.37,29.64-22.331,35.579l-63.993-2.033C197.724,430.502,226.646,421.023,237.678,414.194z M397.644,413.063
		c-5.035,30.932-52.512,31.08-69.326,30.141c-3.557-0.199-9.63-0.595-9.63-0.595l-77.66-2.468
		c5.955-11.325,20.739-37.06,37.066-47.533c4.379-1.768,7.902-2.837,10.303-3.077c1.313-0.132,3.273-0.367,5.716-0.662
		c13.763-1.658,50.324-6.064,61.03-0.711c1.116,0.558,2.427,0.563,3.547,0.015c1.119-0.547,1.92-1.586,2.164-2.809
		c1.966-9.83-0.516-16.366-11.595-25.467c16.542,1.537,30.807,7.746,39.489,17.504C396.994,386.668,399.988,398.666,397.644,413.063
		z"/>
	<path d="M220.357,129.936c0.527,0.014,1.067-0.078,1.587-0.286c3.765-1.504,7.914-1.497,11.683,0.016
		c2.049,0.823,4.38-0.17,5.202-2.22c0.823-2.049-0.171-4.379-2.22-5.202c-5.688-2.285-11.95-2.292-17.634-0.021
		c-2.051,0.82-3.05,3.147-2.23,5.198C217.358,128.95,218.808,129.895,220.357,129.936z"/>
	<circle cx="227.805" cy="80.04" r="5.334"/>
</g>
<g>
</g>
<g>
</g>
<g>
</g>
<g>
</g>
<g>
</g>
<g>
</g>
<g>
</g>
<g>
</g>
<g>
</g>
<g>
</g>
<g>
</g>
<g>
</g>
<g>
</g>
<g>
</g>
<g>
</g>
</svg>
