<svg width="75" height="75" viewBox="0 0 75 75" fill="none" xmlns="http://www.w3.org/2000/svg">
<path d="M70.7645 10.0822L67.5596 7.26012L70.7645 4.43858C71.2629 3.99913 71.4334 3.3142 71.1993 2.69279C70.9642 2.0708 70.3834 1.66912 69.719 1.66912H56.4565V1.0992C56.4565 0.492095 55.9644 0 55.3573 0C54.7502 0 54.2581 0.492095 54.2581 1.0992V15.9239L45.2305 20.8259C45.1807 20.4288 45.0617 20.0386 44.8734 19.6712L43.6014 17.1878C42.7282 15.4827 40.6305 14.8069 38.9265 15.6795L37.9429 16.1831C37.1166 16.6065 36.5049 17.3252 36.22 18.2087C35.935 19.0916 36.0111 20.0328 36.4346 20.8585L37.7066 23.3425C38.0035 23.9221 38.4424 24.381 38.9585 24.7026C38.2833 25.6118 37.9629 26.7299 37.6333 27.8915L37.3964 28.7303C37.2311 29.3146 37.5709 29.9222 38.1552 30.087C38.2547 30.1156 38.3554 30.1288 38.4544 30.1288C38.9339 30.1288 39.3745 29.8129 39.5119 29.3283L39.7488 28.4912C40.2305 26.7923 40.5264 25.8825 41.4682 25.3709L43.1568 24.4537L43.3651 24.3473C43.4343 24.3118 43.499 24.2717 43.5648 24.2322L55.5994 17.6971C55.5233 19.2014 54.7136 20.6228 53.3804 21.4325L45.5543 26.1875C45.5452 26.1926 45.536 26.1978 45.5274 26.2035L43.0916 27.6832C42.5731 27.9985 42.4078 28.6748 42.7231 29.1938C43.02 29.6831 43.638 29.857 44.1421 29.6115L42.2939 35.1985L40.9429 35.7524L37.2694 37.2579L38.328 33.5157C38.4928 32.9315 38.1535 32.3238 37.5692 32.1584C36.9844 31.9925 36.3773 32.3329 36.212 32.9171L34.5394 38.832C34.5177 38.9081 34.5034 38.9917 34.4999 39.0712L34.0622 47.1118C34.049 47.4185 34.1143 47.9981 33.9724 48.2974L29.1109 58.525H25.5781C23.5085 58.525 21.8251 60.2084 21.8251 62.2775V65.4503C21.3513 65.2335 20.8254 65.1122 20.2709 65.1122H11.2994C9.23028 65.1122 7.54686 66.795 7.54686 68.8647V72.8015H4.90786C4.30075 72.8015 3.80865 73.2935 3.80865 73.9007C3.80865 74.5078 4.30075 74.9999 4.90786 74.9999H69.7179C70.325 74.9999 70.8171 74.5078 70.8171 73.9007C70.8171 73.2935 70.325 72.8015 69.7179 72.8015H66.8592V44.4688C66.8592 42.3997 65.1758 40.7163 63.1067 40.7163H56.4565V21.54C57.6753 19.8881 58.1268 17.7229 57.5609 15.6652C57.4722 15.3419 57.2404 15.0764 56.9314 14.9454C56.7798 14.8807 56.6173 14.8521 56.4565 14.8584V12.8517H69.7185C70.3834 12.8517 70.9642 12.45 71.1988 11.8286C71.4334 11.2072 71.2629 10.5217 70.7645 10.0822ZM38.3125 18.8839C38.4172 18.5594 38.6415 18.2951 38.9448 18.14L39.9284 17.6365C40.1138 17.5415 40.3118 17.4963 40.5075 17.4963C40.971 17.4963 41.419 17.7498 41.6445 18.1898L42.917 20.6737C43.214 21.2539 43.0218 21.9572 42.4936 22.3125L42.1354 22.5065L41.3795 22.8939C40.7541 23.2143 39.9839 22.966 39.6635 22.34L38.3909 19.8566C38.2358 19.5533 38.2078 19.2077 38.3125 18.8839ZM36.1038 58.8631C35.7302 58.6926 35.3239 58.581 34.897 58.5416L36.1038 56.9388V58.8631ZM41.3229 50.006C41.8516 49.3726 41.9975 48.6327 42.1154 48.0365C42.1451 47.8946 42.6876 44.9317 42.6876 44.9317C42.6876 44.9317 43.2009 45.2516 43.2546 45.2745C43.2918 45.291 43.3182 45.3277 43.3222 45.3706L43.9201 51.4491H40.2363L41.3229 50.006ZM47.8231 43.9389L46.895 51.444H46.1288L45.5103 45.1554C45.4313 44.3498 44.9381 43.6465 44.2154 43.2969L43.1099 42.596L43.8463 38.5144C43.8463 38.5144 46.9488 42.2 47.0209 42.2938C47.6629 43.1287 47.8826 43.4629 47.8231 43.9389ZM35.9499 49.2587C36.1719 48.5904 36.2749 47.91 36.2577 47.2182L36.6571 39.8849L41.7412 37.8015L40.8171 42.9204C40.8142 42.9341 40.8113 42.9484 40.8096 42.9622L40.0452 47.1948C39.9456 47.6331 39.8586 48.298 39.5851 48.659L32.1573 58.525H31.5451L35.9499 49.2587ZM9.74527 68.8641C9.74527 68.0075 10.4422 67.3106 11.2994 67.3106H20.2709C21.1281 67.3106 21.8256 68.0075 21.8256 68.8641V72.8015H9.74527V68.8641ZM24.0235 68.8641V62.2775C24.0235 61.4203 24.721 60.7234 25.5781 60.7234H34.5497C35.4069 60.7234 36.1038 61.4203 36.1038 62.2775V72.8015H24.024V68.8641H24.0235ZM64.6608 44.4688V72.8015H52.581V66.2108C52.581 65.6037 52.0889 65.1116 51.4818 65.1116C50.8741 65.1116 50.382 65.6037 50.382 66.2108V72.8015H38.3022V55.201C38.3022 54.3445 38.9992 53.6475 39.8563 53.6475H48.8279C49.6851 53.6475 50.382 54.3445 50.382 55.201V60.7114C50.382 61.3185 50.8741 61.8106 51.4812 61.8106C52.0889 61.8106 52.5804 61.3185 52.5804 60.7114V44.4688C52.5804 43.6116 53.2779 42.9147 54.1351 42.9147H55.3459C55.3493 42.9147 55.3533 42.9153 55.3573 42.9153C55.3608 42.9153 55.3648 42.9147 55.3682 42.9147H63.1061C63.9633 42.9147 64.6608 43.6122 64.6608 44.4688ZM54.1351 40.7163C52.066 40.7163 50.3826 42.3997 50.3826 44.4688V51.7873C49.9889 51.6076 49.5598 51.4937 49.1083 51.4605L50.0049 44.2096C50.1812 42.7962 49.4602 41.8595 48.7632 40.9532C48.6894 40.857 44.4168 35.7839 44.4168 35.7839L47.0381 27.8589L54.2581 23.4724V40.7163H54.1351ZM56.4565 10.6527V3.8681H68.0854L65.5809 6.07337C65.2398 6.37377 65.0441 6.80636 65.0441 7.26069C65.0441 7.71502 65.2398 8.14761 65.5809 8.44801L68.0854 10.6533H56.4565V10.6527Z" fill="black"/>
</svg>
