<svg width="453" height="453" viewBox="0 0 453 453" fill="none" xmlns="http://www.w3.org/2000/svg">
<g filter="url(#filter0_d)">
<circle cx="226.5" cy="222.5" r="222.5" fill="#010101"/>
<circle cx="226.5" cy="222.5" r="220" stroke="black" stroke-width="5"/>
</g>
<path d="M127.953 147.391H111.922V175H102.875V106.75H125.469C133.156 106.75 139.062 108.5 143.188 112C147.344 115.5 149.422 120.594 149.422 127.281C149.422 131.531 148.266 135.234 145.953 138.391C143.672 141.547 140.484 143.906 136.391 145.469L152.422 174.438V175H142.766L127.953 147.391ZM111.922 140.031H125.75C130.219 140.031 133.766 138.875 136.391 136.562C139.047 134.25 140.375 131.156 140.375 127.281C140.375 123.062 139.109 119.828 136.578 117.578C134.078 115.328 130.453 114.188 125.703 114.156H111.922V140.031ZM206 144.578C198.281 142.359 192.656 139.641 189.125 136.422C185.625 133.172 183.875 129.172 183.875 124.422C183.875 119.047 186.016 114.609 190.297 111.109C194.609 107.578 200.203 105.812 207.078 105.812C211.766 105.812 215.938 106.719 219.594 108.531C223.281 110.344 226.125 112.844 228.125 116.031C230.156 119.219 231.172 122.703 231.172 126.484H222.125C222.125 122.359 220.812 119.125 218.188 116.781C215.562 114.406 211.859 113.219 207.078 113.219C202.641 113.219 199.172 114.203 196.672 116.172C194.203 118.109 192.969 120.812 192.969 124.281C192.969 127.062 194.141 129.422 196.484 131.359C198.859 133.266 202.875 135.016 208.531 136.609C214.219 138.203 218.656 139.969 221.844 141.906C225.062 143.812 227.438 146.047 228.969 148.609C230.531 151.172 231.312 154.188 231.312 157.656C231.312 163.188 229.156 167.625 224.844 170.969C220.531 174.281 214.766 175.938 207.547 175.938C202.859 175.938 198.484 175.047 194.422 173.266C190.359 171.453 187.219 168.984 185 165.859C182.812 162.734 181.719 159.188 181.719 155.219H190.766C190.766 159.344 192.281 162.609 195.312 165.016C198.375 167.391 202.453 168.578 207.547 168.578C212.297 168.578 215.938 167.609 218.469 165.672C221 163.734 222.266 161.094 222.266 157.75C222.266 154.406 221.094 151.828 218.75 150.016C216.406 148.172 212.156 146.359 206 144.578ZM123.031 257.578C115.312 255.359 109.688 252.641 106.156 249.422C102.656 246.172 100.906 242.172 100.906 237.422C100.906 232.047 103.047 227.609 107.328 224.109C111.641 220.578 117.234 218.812 124.109 218.812C128.797 218.812 132.969 219.719 136.625 221.531C140.312 223.344 143.156 225.844 145.156 229.031C147.188 232.219 148.203 235.703 148.203 239.484H139.156C139.156 235.359 137.844 232.125 135.219 229.781C132.594 227.406 128.891 226.219 124.109 226.219C119.672 226.219 116.203 227.203 113.703 229.172C111.234 231.109 110 233.812 110 237.281C110 240.062 111.172 242.422 113.516 244.359C115.891 246.266 119.906 248.016 125.562 249.609C131.25 251.203 135.688 252.969 138.875 254.906C142.094 256.812 144.469 259.047 146 261.609C147.562 264.172 148.344 267.188 148.344 270.656C148.344 276.188 146.188 280.625 141.875 283.969C137.562 287.281 131.797 288.938 124.578 288.938C119.891 288.938 115.516 288.047 111.453 286.266C107.391 284.453 104.25 281.984 102.031 278.859C99.8438 275.734 98.75 272.188 98.75 268.219H107.797C107.797 272.344 109.312 275.609 112.344 278.016C115.406 280.391 119.484 281.578 124.578 281.578C129.328 281.578 132.969 280.609 135.5 278.672C138.031 276.734 139.297 274.094 139.297 270.75C139.297 267.406 138.125 264.828 135.781 263.016C133.438 261.172 129.188 259.359 123.031 257.578ZM178.906 281.859C182 281.859 184.703 280.922 187.016 279.047C189.328 277.172 190.609 274.828 190.859 272.016H199.062C198.906 274.922 197.906 277.688 196.062 280.312C194.219 282.938 191.75 285.031 188.656 286.594C185.594 288.156 182.344 288.938 178.906 288.938C172 288.938 166.5 286.641 162.406 282.047C158.344 277.422 156.312 271.109 156.312 263.109V261.656C156.312 256.719 157.219 252.328 159.031 248.484C160.844 244.641 163.438 241.656 166.812 239.531C170.219 237.406 174.234 236.344 178.859 236.344C184.547 236.344 189.266 238.047 193.016 241.453C196.797 244.859 198.812 249.281 199.062 254.719H190.859C190.609 251.438 189.359 248.75 187.109 246.656C184.891 244.531 182.141 243.469 178.859 243.469C174.453 243.469 171.031 245.062 168.594 248.25C166.188 251.406 164.984 255.984 164.984 261.984V263.625C164.984 269.469 166.188 273.969 168.594 277.125C171 280.281 174.438 281.859 178.906 281.859ZM217.484 243.422C221.328 238.703 226.328 236.344 232.484 236.344C243.203 236.344 248.609 242.391 248.703 254.484V288H240.031V254.438C240 250.781 239.156 248.078 237.5 246.328C235.875 244.578 233.328 243.703 229.859 243.703C227.047 243.703 224.578 244.453 222.453 245.953C220.328 247.453 218.672 249.422 217.484 251.859V288H208.812V216H217.484V243.422ZM259.391 262.172C259.391 257.203 260.359 252.734 262.297 248.766C264.266 244.797 266.984 241.734 270.453 239.578C273.953 237.422 277.938 236.344 282.406 236.344C289.312 236.344 294.891 238.734 299.141 243.516C303.422 248.297 305.562 254.656 305.562 262.594V263.203C305.562 268.141 304.609 272.578 302.703 276.516C300.828 280.422 298.125 283.469 294.594 285.656C291.094 287.844 287.062 288.938 282.5 288.938C275.625 288.938 270.047 286.547 265.766 281.766C261.516 276.984 259.391 270.656 259.391 262.781V262.172ZM268.109 263.203C268.109 268.828 269.406 273.344 272 276.75C274.625 280.156 278.125 281.859 282.5 281.859C286.906 281.859 290.406 280.141 293 276.703C295.594 273.234 296.891 268.391 296.891 262.172C296.891 256.609 295.562 252.109 292.906 248.672C290.281 245.203 286.781 243.469 282.406 243.469C278.125 243.469 274.672 245.172 272.047 248.578C269.422 251.984 268.109 256.859 268.109 263.203ZM325.859 288H317.188V216H325.859V288ZM349.203 288H340.531V216H349.203V288Z" fill="#FFFCFC"/>
<defs>
<filter id="filter0_d" x="0" y="0" width="453" height="453" filterUnits="userSpaceOnUse" color-interpolation-filters="sRGB">
<feFlood flood-opacity="0" result="BackgroundImageFix"/>
<feColorMatrix in="SourceAlpha" type="matrix" values="0 0 0 0 0 0 0 0 0 0 0 0 0 0 0 0 0 0 127 0"/>
<feOffset dy="4"/>
<feGaussianBlur stdDeviation="2"/>
<feColorMatrix type="matrix" values="0 0 0 0 0 0 0 0 0 0 0 0 0 0 0 0 0 0 0.25 0"/>
<feBlend mode="normal" in2="BackgroundImageFix" result="effect1_dropShadow"/>
<feBlend mode="normal" in="SourceGraphic" in2="effect1_dropShadow" result="shape"/>
</filter>
</defs>
</svg>
