<svg width="453" height="453" viewBox="0 0 453 453" fill="none" xmlns="http://www.w3.org/2000/svg">
<g filter="url(#filter0_d)">
<circle cx="226.5" cy="222.5" r="222.5" fill="#070707"/>
<circle cx="226.5" cy="222.5" r="220" stroke="black" stroke-width="5"/>
</g>
<path d="M124.521 165.267H110.159V190H102.055V128.859H122.295C129.182 128.859 134.473 130.427 138.168 133.562C141.891 136.698 143.753 141.261 143.753 147.252C143.753 151.059 142.717 154.377 140.646 157.204C138.602 160.032 135.746 162.145 132.079 163.545L146.44 189.496V190H137.79L124.521 165.267ZM110.159 158.674H122.547C126.55 158.674 129.728 157.638 132.079 155.566C134.459 153.495 135.648 150.723 135.648 147.252C135.648 143.473 134.515 140.575 132.247 138.56C130.007 136.544 126.76 135.522 122.505 135.494H110.159V158.674ZM173.105 162.747C166.191 160.759 161.152 158.324 157.988 155.44C154.853 152.529 153.285 148.946 153.285 144.69C153.285 139.875 155.203 135.9 159.038 132.765C162.901 129.601 167.912 128.02 174.071 128.02C178.271 128.02 182.008 128.831 185.283 130.455C188.587 132.079 191.134 134.318 192.926 137.174C194.745 140.029 195.655 143.151 195.655 146.538H187.551C187.551 142.843 186.375 139.945 184.023 137.846C181.672 135.718 178.354 134.654 174.071 134.654C170.096 134.654 166.989 135.536 164.749 137.3C162.537 139.035 161.432 141.457 161.432 144.564C161.432 147.056 162.481 149.17 164.581 150.905C166.709 152.613 170.306 154.181 175.373 155.608C180.468 157.036 184.443 158.618 187.299 160.354C190.182 162.061 192.31 164.063 193.682 166.358C195.081 168.654 195.781 171.355 195.781 174.463C195.781 179.418 193.85 183.393 189.986 186.389C186.123 189.356 180.958 190.84 174.491 190.84C170.292 190.84 166.373 190.042 162.733 188.446C159.094 186.823 156.281 184.611 154.293 181.812C152.333 179.012 151.354 175.835 151.354 172.279H159.458C159.458 175.975 160.816 178.9 163.531 181.056C166.275 183.183 169.928 184.247 174.491 184.247C178.746 184.247 182.008 183.379 184.275 181.644C186.543 179.908 187.677 177.542 187.677 174.547C187.677 171.551 186.627 169.242 184.527 167.618C182.428 165.966 178.62 164.343 173.105 162.747ZM120.111 263.747C113.197 261.759 108.158 259.324 104.994 256.44C101.859 253.529 100.291 249.946 100.291 245.69C100.291 240.875 102.209 236.9 106.044 233.765C109.907 230.601 114.918 229.02 121.077 229.02C125.276 229.02 129.014 229.831 132.289 231.455C135.592 233.079 138.14 235.318 139.932 238.174C141.751 241.029 142.661 244.151 142.661 247.538H134.557C134.557 243.843 133.381 240.945 131.029 238.846C128.678 236.718 125.36 235.654 121.077 235.654C117.102 235.654 113.994 236.536 111.755 238.3C109.543 240.035 108.438 242.457 108.438 245.564C108.438 248.056 109.487 250.17 111.587 251.905C113.715 253.613 117.312 255.181 122.379 256.608C127.474 258.036 131.449 259.618 134.305 261.354C137.188 263.061 139.316 265.063 140.688 267.358C142.087 269.654 142.787 272.355 142.787 275.463C142.787 280.418 140.855 284.393 136.992 287.389C133.129 290.356 127.964 291.84 121.497 291.84C117.298 291.84 113.379 291.042 109.739 289.446C106.1 287.823 103.286 285.611 101.299 282.812C99.3392 280.012 98.3594 276.835 98.3594 273.279H106.464C106.464 276.975 107.822 279.9 110.537 282.056C113.281 284.183 116.934 285.247 121.497 285.247C125.752 285.247 129.014 284.379 131.281 282.644C133.549 280.908 134.683 278.542 134.683 275.547C134.683 272.551 133.633 270.242 131.533 268.618C129.434 266.966 125.626 265.343 120.111 263.747ZM170.166 285.499C172.938 285.499 175.359 284.659 177.431 282.979C179.502 281.3 180.65 279.2 180.874 276.681H188.223C188.083 279.284 187.187 281.762 185.535 284.113C183.883 286.465 181.672 288.34 178.9 289.74C176.157 291.14 173.245 291.84 170.166 291.84C163.979 291.84 159.052 289.782 155.385 285.667C151.745 281.524 149.926 275.869 149.926 268.702V267.4C149.926 262.977 150.738 259.044 152.361 255.601C153.985 252.157 156.309 249.484 159.332 247.58C162.383 245.676 165.981 244.725 170.124 244.725C175.219 244.725 179.446 246.25 182.806 249.302C186.193 252.353 187.999 256.314 188.223 261.186H180.874C180.65 258.246 179.53 255.839 177.515 253.963C175.527 252.059 173.063 251.107 170.124 251.107C166.177 251.107 163.111 252.535 160.928 255.391C158.772 258.218 157.694 262.319 157.694 267.694V269.164C157.694 274.399 158.772 278.43 160.928 281.258C163.083 284.085 166.163 285.499 170.166 285.499ZM204.726 251.065C208.169 246.838 212.648 244.725 218.163 244.725C227.765 244.725 232.608 250.142 232.692 260.976V291H224.924V260.934C224.896 257.658 224.14 255.237 222.656 253.669C221.201 252.101 218.919 251.317 215.812 251.317C213.292 251.317 211.08 251.989 209.177 253.333C207.273 254.677 205.789 256.44 204.726 258.624V291H196.957V226.5H204.726V251.065ZM242.267 267.862C242.267 263.411 243.134 259.408 244.87 255.853C246.634 252.297 249.069 249.554 252.177 247.622C255.312 245.69 258.882 244.725 262.885 244.725C269.072 244.725 274.069 246.866 277.876 251.149C281.711 255.433 283.629 261.13 283.629 268.24V268.786C283.629 273.209 282.775 277.185 281.067 280.712C279.388 284.211 276.966 286.941 273.803 288.9C270.667 290.86 267.056 291.84 262.969 291.84C256.81 291.84 251.813 289.698 247.978 285.415C244.17 281.132 242.267 275.463 242.267 268.408V267.862ZM250.077 268.786C250.077 273.825 251.239 277.87 253.562 280.922C255.914 283.973 259.049 285.499 262.969 285.499C266.916 285.499 270.051 283.959 272.375 280.88C274.699 277.772 275.86 273.433 275.86 267.862C275.86 262.879 274.671 258.848 272.291 255.769C269.939 252.661 266.804 251.107 262.885 251.107C259.049 251.107 255.956 252.633 253.604 255.685C251.253 258.736 250.077 263.103 250.077 268.786ZM291.313 267.862C291.313 263.411 292.181 259.408 293.917 255.853C295.681 252.297 298.116 249.554 301.224 247.622C304.359 245.69 307.928 244.725 311.932 244.725C318.118 244.725 323.116 246.866 326.923 251.149C330.758 255.433 332.676 261.13 332.676 268.24V268.786C332.676 273.209 331.822 277.185 330.114 280.712C328.435 284.211 326.013 286.941 322.85 288.9C319.714 290.86 316.103 291.84 312.016 291.84C305.857 291.84 300.86 289.698 297.024 285.415C293.217 281.132 291.313 275.463 291.313 268.408V267.862ZM299.124 268.786C299.124 273.825 300.286 277.87 302.609 280.922C304.961 283.973 308.096 285.499 312.016 285.499C315.963 285.499 319.098 283.959 321.422 280.88C323.745 277.772 324.907 273.433 324.907 267.862C324.907 262.879 323.717 258.848 321.338 255.769C318.986 252.661 315.851 251.107 311.932 251.107C308.096 251.107 305.003 252.633 302.651 255.685C300.3 258.736 299.124 263.103 299.124 268.786ZM350.858 291H343.09V226.5H350.858V291Z" fill="white"/>
<defs>
<filter id="filter0_d" x="0" y="0" width="453" height="453" filterUnits="userSpaceOnUse" color-interpolation-filters="sRGB">
<feFlood flood-opacity="0" result="BackgroundImageFix"/>
<feColorMatrix in="SourceAlpha" type="matrix" values="0 0 0 0 0 0 0 0 0 0 0 0 0 0 0 0 0 0 127 0"/>
<feOffset dy="4"/>
<feGaussianBlur stdDeviation="2"/>
<feColorMatrix type="matrix" values="0 0 0 0 0 0 0 0 0 0 0 0 0 0 0 0 0 0 0.25 0"/>
<feBlend mode="normal" in2="BackgroundImageFix" result="effect1_dropShadow"/>
<feBlend mode="normal" in="SourceGraphic" in2="effect1_dropShadow" result="shape"/>
</filter>
</defs>
</svg>
