<svg width="453" height="453" viewBox="0 0 453 453" fill="none" xmlns="http://www.w3.org/2000/svg">
<path d="M406 148C406 172.71 394.049 194.629 375.614 208.294C367.897 214.012 359.044 218.286 349.456 220.71C343.551 222.207 337.37 223 331 223C324.63 223 318.446 222.207 312.541 220.71C302.953 218.286 294.1 214.012 286.383 208.291C267.948 194.625 256 172.707 256 148C256 106.579 289.579 73 331 73C372.421 73 406 106.579 406 148Z" fill="#5ADAFD"/>
<path d="M377.481 181.319C377.129 178.959 376.663 176.528 376.088 174.043C375.58 171.86 374.989 169.634 374.319 167.375C372.555 161.443 370.232 155.278 367.416 149.045C366.182 146.32 364.854 143.584 363.436 140.85C362.187 138.441 360.871 136.029 359.484 133.632C358.1 131.232 356.674 128.887 355.208 126.6C353.551 124.007 351.846 121.491 350.101 119.06C346.116 113.504 341.937 108.407 337.679 103.913C336.06 102.202 334.428 100.579 332.79 99.0519C330.926 97.307 329.052 95.6877 327.182 94.203C314.971 84.508 304.039 81.5968 296.395 86.008C288.751 90.4222 285.806 101.345 288.096 116.77C288.445 119.13 288.914 121.561 289.492 124.047C289.994 126.229 290.585 128.455 291.259 130.714C293.022 136.647 295.345 142.815 298.165 149.045C299.396 151.769 300.724 154.503 302.141 157.236C303.39 159.649 304.71 162.058 306.093 164.458C307.477 166.858 308.904 169.203 310.37 171.489C312.029 174.085 313.734 176.602 315.476 179.032C319.462 184.588 323.64 189.682 327.898 194.176C329.518 195.887 331.152 197.513 332.79 199.04C334.654 200.785 336.528 202.401 338.395 203.886C342.886 207.452 347.202 210.1 351.246 211.799C360.834 209.375 369.687 205.102 377.404 199.383C378.482 194.418 378.521 188.336 377.481 181.319ZM370.605 198.269C369.714 202.12 368.076 204.759 365.735 206.109C363.396 207.462 360.292 207.56 356.511 206.409C352.415 205.157 347.634 202.42 342.681 198.487C341.016 197.164 339.347 195.725 337.679 194.179C336.044 192.661 334.409 191.038 332.787 189.321C330.001 186.373 327.246 183.146 324.558 179.684C322.764 177.373 320.998 174.958 319.275 172.451C316.774 168.817 314.358 164.991 312.062 161.011C309.763 157.031 307.657 153.027 305.762 149.045C304.452 146.299 303.243 143.562 302.141 140.853C300.485 136.794 299.067 132.793 297.907 128.908C297.234 126.643 296.643 124.42 296.15 122.244C295.642 120.028 295.229 117.86 294.916 115.757C293.986 109.503 294.007 103.993 294.971 99.8206C295.862 95.9696 297.503 93.3308 299.842 91.9808C301.106 91.2522 302.591 90.8848 304.283 90.8848C305.728 90.8848 307.326 91.1511 309.065 91.6837C313.161 92.9327 317.942 95.6725 322.895 99.6033C324.561 100.926 326.232 102.364 327.898 103.917C329.535 105.432 331.167 107.054 332.786 108.769C335.575 111.717 338.33 114.943 341.021 118.409C342.815 120.72 344.581 123.135 346.305 125.642C348.803 129.276 351.218 133.102 353.514 137.079C355.813 141.059 357.919 145.063 359.814 149.045C361.124 151.794 362.333 154.531 363.435 157.24C365.091 161.299 366.509 165.297 367.669 169.182C368.342 171.447 368.933 173.67 369.429 175.846C369.934 178.062 370.348 180.23 370.66 182.333C371.591 188.587 371.57 194.097 370.605 198.269Z" fill="#F2F2F2"/>
<path d="M383.086 126.481C380.866 125.605 378.528 124.794 376.085 124.047C373.942 123.395 371.72 122.792 369.426 122.244C363.408 120.805 356.906 119.734 350.101 119.06C347.129 118.763 344.095 118.546 341.021 118.408C338.309 118.283 335.56 118.218 332.79 118.218C330.02 118.218 327.27 118.282 324.555 118.408C321.479 118.546 318.445 118.766 315.472 119.06C308.667 119.734 302.168 120.805 296.15 122.244C293.857 122.792 291.635 123.395 289.492 124.047C287.049 124.791 284.71 125.605 282.491 126.481C267.99 132.205 260 140.219 260 149.045C260 157.87 267.99 165.885 282.491 171.612C284.71 172.487 287.046 173.299 289.489 174.046C291.632 174.698 293.854 175.301 296.147 175.846C302.166 177.287 308.667 178.356 315.476 179.032C318.448 179.326 321.482 179.544 324.558 179.685C327.271 179.81 330.02 179.871 332.79 179.871C335.56 179.871 338.306 179.81 341.018 179.685C344.095 179.544 347.126 179.326 350.101 179.032C356.906 178.359 363.411 177.287 369.43 175.846C371.722 175.298 373.945 174.698 376.088 174.043C378.528 173.299 380.867 172.488 383.086 171.612C397.59 165.885 405.577 157.87 405.577 149.045C405.576 140.219 397.59 132.205 383.086 126.481ZM394.326 157.181C391.198 160.105 386.435 162.875 380.554 165.199C378.574 165.979 376.492 166.708 374.318 167.375C372.184 168.033 369.965 168.636 367.669 169.181C363.723 170.121 359.551 170.893 355.207 171.49C352.311 171.891 349.338 172.212 346.305 172.448C341.906 172.8 337.384 172.978 332.79 172.978C328.195 172.978 323.673 172.8 319.274 172.451C316.241 172.212 313.265 171.891 310.369 171.49C306.025 170.893 301.853 170.121 297.907 169.182C295.611 168.637 293.392 168.034 291.258 167.375C289.084 166.708 287.003 165.979 285.022 165.199C279.142 162.875 274.378 160.105 271.25 157.182C268.36 154.485 266.894 151.748 266.894 149.045C266.894 146.342 268.36 143.605 271.25 140.908C274.378 137.985 279.141 135.214 285.022 132.891C287.003 132.11 289.084 131.382 291.258 130.714C293.392 130.056 295.611 129.453 297.907 128.908C301.853 127.968 306.025 127.197 310.369 126.6C313.265 126.199 316.241 125.878 319.274 125.639C323.673 125.29 328.195 125.112 332.79 125.112C337.384 125.112 341.906 125.29 346.305 125.642C349.338 125.878 352.311 126.199 355.207 126.6C359.551 127.197 363.723 127.969 367.669 128.909C369.965 129.454 372.184 130.056 374.318 130.715C376.492 131.382 378.573 132.111 380.554 132.891C386.434 135.215 391.198 137.985 394.326 140.909C397.216 143.606 398.683 146.342 398.683 149.045C398.683 151.748 397.216 154.485 394.326 157.181Z" fill="#F2F2F2"/>
<path d="M369.182 86.008C361.538 81.5968 350.606 84.508 338.395 94.203C336.528 95.6877 334.654 97.307 332.79 99.0519C331.152 100.579 329.517 102.205 327.898 103.916C323.64 108.41 319.462 113.504 315.473 119.06C313.731 121.49 312.026 124.007 310.37 126.6C308.903 128.886 307.477 131.231 306.093 133.631C304.71 136.031 303.39 138.44 302.141 140.853C300.724 143.586 299.395 146.323 298.165 149.044C295.345 155.277 293.022 161.442 291.259 167.375C290.585 169.637 289.994 171.863 289.489 174.045C288.914 176.531 288.445 178.959 288.096 181.319C287.055 188.332 287.095 194.415 288.173 199.38C295.89 205.101 304.743 209.375 314.331 211.799C318.375 210.1 322.691 207.452 327.182 203.886C329.052 202.401 330.926 200.782 332.79 199.04C334.428 197.513 336.06 195.89 337.679 194.179C341.934 189.685 346.116 184.588 350.102 179.032C351.843 176.601 353.549 174.085 355.208 171.489C356.674 169.202 358.101 166.857 359.484 164.457C360.871 162.06 362.187 159.651 363.436 157.239C364.854 154.505 366.182 151.769 367.416 149.044C370.232 142.814 372.556 136.646 374.319 130.714C374.989 128.455 375.58 126.229 376.085 124.046C376.664 121.56 377.129 119.13 377.481 116.77C379.77 101.345 376.826 90.4222 369.182 86.008ZM367.67 128.908C366.509 132.793 365.092 136.791 363.436 140.85C362.334 143.559 361.125 146.296 359.814 149.045C357.92 153.027 355.813 157.031 353.514 161.011C351.218 164.987 348.803 168.814 346.305 172.448C344.579 174.958 342.813 177.373 341.019 179.684C338.331 183.146 335.576 186.373 332.787 189.321C331.168 191.035 329.536 192.657 327.898 194.176C326.233 195.725 324.562 197.164 322.896 198.486C317.943 202.42 313.162 205.156 309.066 206.408C305.285 207.56 302.181 207.461 299.842 206.108C297.503 204.758 295.863 202.12 294.972 198.269C294.008 194.096 293.986 188.586 294.917 182.332C295.229 180.229 295.642 178.062 296.147 175.845C296.643 173.669 297.234 171.446 297.907 169.181C299.068 165.297 300.485 161.295 302.141 157.236C303.243 154.527 304.452 151.79 305.763 149.045C307.657 145.062 309.764 141.058 312.063 137.078C314.359 133.099 316.774 129.272 319.275 125.639C320.998 123.131 322.762 120.716 324.555 118.408C327.246 114.943 330.001 111.716 332.787 108.768C334.409 107.051 336.044 105.428 337.679 103.913C339.347 102.364 341.015 100.925 342.681 99.603C347.634 95.6725 352.416 92.9327 356.511 91.6834C358.25 91.1508 359.848 90.8845 361.293 90.8845C362.986 90.8845 364.473 91.2519 365.734 91.9805C368.076 93.3305 369.714 95.9693 370.605 99.8203C371.569 103.993 371.591 109.503 370.66 115.757C370.348 117.86 369.934 120.027 369.426 122.244C368.934 124.42 368.343 126.643 367.67 128.908Z" fill="#F2F2F2"/>
<path d="M332.79 162.725C340.345 162.725 346.47 156.6 346.47 149.045C346.47 141.489 340.345 135.364 332.79 135.364C325.234 135.364 319.109 141.489 319.109 149.045C319.109 156.6 325.234 162.725 332.79 162.725Z" fill="#F2F2F2"/>
<g filter="url(#filter0_d)">
<circle cx="226.5" cy="222.5" r="220" stroke="black" stroke-width="5"/>
</g>
<path d="M127.953 147.391H111.922V175H102.875V106.75H125.469C133.156 106.75 139.062 108.5 143.188 112C147.344 115.5 149.422 120.594 149.422 127.281C149.422 131.531 148.266 135.234 145.953 138.391C143.672 141.547 140.484 143.906 136.391 145.469L152.422 174.438V175H142.766L127.953 147.391ZM111.922 140.031H125.75C130.219 140.031 133.766 138.875 136.391 136.562C139.047 134.25 140.375 131.156 140.375 127.281C140.375 123.062 139.109 119.828 136.578 117.578C134.078 115.328 130.453 114.188 125.703 114.156H111.922V140.031ZM206 144.578C198.281 142.359 192.656 139.641 189.125 136.422C185.625 133.172 183.875 129.172 183.875 124.422C183.875 119.047 186.016 114.609 190.297 111.109C194.609 107.578 200.203 105.812 207.078 105.812C211.766 105.812 215.938 106.719 219.594 108.531C223.281 110.344 226.125 112.844 228.125 116.031C230.156 119.219 231.172 122.703 231.172 126.484H222.125C222.125 122.359 220.812 119.125 218.188 116.781C215.562 114.406 211.859 113.219 207.078 113.219C202.641 113.219 199.172 114.203 196.672 116.172C194.203 118.109 192.969 120.812 192.969 124.281C192.969 127.062 194.141 129.422 196.484 131.359C198.859 133.266 202.875 135.016 208.531 136.609C214.219 138.203 218.656 139.969 221.844 141.906C225.062 143.812 227.438 146.047 228.969 148.609C230.531 151.172 231.312 154.188 231.312 157.656C231.312 163.188 229.156 167.625 224.844 170.969C220.531 174.281 214.766 175.938 207.547 175.938C202.859 175.938 198.484 175.047 194.422 173.266C190.359 171.453 187.219 168.984 185 165.859C182.812 162.734 181.719 159.188 181.719 155.219H190.766C190.766 159.344 192.281 162.609 195.312 165.016C198.375 167.391 202.453 168.578 207.547 168.578C212.297 168.578 215.938 167.609 218.469 165.672C221 163.734 222.266 161.094 222.266 157.75C222.266 154.406 221.094 151.828 218.75 150.016C216.406 148.172 212.156 146.359 206 144.578ZM123.031 257.578C115.312 255.359 109.688 252.641 106.156 249.422C102.656 246.172 100.906 242.172 100.906 237.422C100.906 232.047 103.047 227.609 107.328 224.109C111.641 220.578 117.234 218.812 124.109 218.812C128.797 218.812 132.969 219.719 136.625 221.531C140.312 223.344 143.156 225.844 145.156 229.031C147.188 232.219 148.203 235.703 148.203 239.484H139.156C139.156 235.359 137.844 232.125 135.219 229.781C132.594 227.406 128.891 226.219 124.109 226.219C119.672 226.219 116.203 227.203 113.703 229.172C111.234 231.109 110 233.812 110 237.281C110 240.062 111.172 242.422 113.516 244.359C115.891 246.266 119.906 248.016 125.562 249.609C131.25 251.203 135.688 252.969 138.875 254.906C142.094 256.812 144.469 259.047 146 261.609C147.562 264.172 148.344 267.188 148.344 270.656C148.344 276.188 146.188 280.625 141.875 283.969C137.562 287.281 131.797 288.938 124.578 288.938C119.891 288.938 115.516 288.047 111.453 286.266C107.391 284.453 104.25 281.984 102.031 278.859C99.8438 275.734 98.75 272.188 98.75 268.219H107.797C107.797 272.344 109.312 275.609 112.344 278.016C115.406 280.391 119.484 281.578 124.578 281.578C129.328 281.578 132.969 280.609 135.5 278.672C138.031 276.734 139.297 274.094 139.297 270.75C139.297 267.406 138.125 264.828 135.781 263.016C133.438 261.172 129.188 259.359 123.031 257.578ZM178.906 281.859C182 281.859 184.703 280.922 187.016 279.047C189.328 277.172 190.609 274.828 190.859 272.016H199.062C198.906 274.922 197.906 277.688 196.062 280.312C194.219 282.938 191.75 285.031 188.656 286.594C185.594 288.156 182.344 288.938 178.906 288.938C172 288.938 166.5 286.641 162.406 282.047C158.344 277.422 156.312 271.109 156.312 263.109V261.656C156.312 256.719 157.219 252.328 159.031 248.484C160.844 244.641 163.438 241.656 166.812 239.531C170.219 237.406 174.234 236.344 178.859 236.344C184.547 236.344 189.266 238.047 193.016 241.453C196.797 244.859 198.812 249.281 199.062 254.719H190.859C190.609 251.438 189.359 248.75 187.109 246.656C184.891 244.531 182.141 243.469 178.859 243.469C174.453 243.469 171.031 245.062 168.594 248.25C166.188 251.406 164.984 255.984 164.984 261.984V263.625C164.984 269.469 166.188 273.969 168.594 277.125C171 280.281 174.438 281.859 178.906 281.859ZM217.484 243.422C221.328 238.703 226.328 236.344 232.484 236.344C243.203 236.344 248.609 242.391 248.703 254.484V288H240.031V254.438C240 250.781 239.156 248.078 237.5 246.328C235.875 244.578 233.328 243.703 229.859 243.703C227.047 243.703 224.578 244.453 222.453 245.953C220.328 247.453 218.672 249.422 217.484 251.859V288H208.812V216H217.484V243.422ZM259.391 262.172C259.391 257.203 260.359 252.734 262.297 248.766C264.266 244.797 266.984 241.734 270.453 239.578C273.953 237.422 277.938 236.344 282.406 236.344C289.312 236.344 294.891 238.734 299.141 243.516C303.422 248.297 305.562 254.656 305.562 262.594V263.203C305.562 268.141 304.609 272.578 302.703 276.516C300.828 280.422 298.125 283.469 294.594 285.656C291.094 287.844 287.062 288.938 282.5 288.938C275.625 288.938 270.047 286.547 265.766 281.766C261.516 276.984 259.391 270.656 259.391 262.781V262.172ZM268.109 263.203C268.109 268.828 269.406 273.344 272 276.75C274.625 280.156 278.125 281.859 282.5 281.859C286.906 281.859 290.406 280.141 293 276.703C295.594 273.234 296.891 268.391 296.891 262.172C296.891 256.609 295.562 252.109 292.906 248.672C290.281 245.203 286.781 243.469 282.406 243.469C278.125 243.469 274.672 245.172 272.047 248.578C269.422 251.984 268.109 256.859 268.109 263.203ZM325.859 288H317.188V216H325.859V288ZM349.203 288H340.531V216H349.203V288Z" fill="black"/>
<defs>
<filter id="filter0_d" x="0" y="0" width="453" height="453" filterUnits="userSpaceOnUse" color-interpolation-filters="sRGB">
<feFlood flood-opacity="0" result="BackgroundImageFix"/>
<feColorMatrix in="SourceAlpha" type="matrix" values="0 0 0 0 0 0 0 0 0 0 0 0 0 0 0 0 0 0 127 0"/>
<feOffset dy="4"/>
<feGaussianBlur stdDeviation="2"/>
<feColorMatrix type="matrix" values="0 0 0 0 0 0 0 0 0 0 0 0 0 0 0 0 0 0 0.25 0"/>
<feBlend mode="normal" in2="BackgroundImageFix" result="effect1_dropShadow"/>
<feBlend mode="normal" in="SourceGraphic" in2="effect1_dropShadow" result="shape"/>
</filter>
</defs>
</svg>
