<svg width="211" height="204" viewBox="0 0 211 204" fill="none" xmlns="http://www.w3.org/2000/svg">
<circle cx="94.5" cy="109.5" r="93" fill="white" stroke="black" stroke-width="3"/>
<path d="M43.584 66.296C46.776 66.296 49.128 66.908 50.64 68.132C52.176 69.332 52.944 71.156 52.944 73.604C52.944 74.972 52.692 76.112 52.188 77.024C51.684 77.936 51.036 78.668 50.244 79.22C49.476 79.748 48.66 80.168 47.796 80.48L54.852 92H51.072L44.844 81.38H39.732V92H36.492V66.296H43.584ZM43.404 69.104H39.732V78.644H43.584C45.672 78.644 47.196 78.236 48.156 77.42C49.116 76.58 49.596 75.356 49.596 73.748C49.596 72.068 49.092 70.88 48.084 70.184C47.076 69.464 45.516 69.104 43.404 69.104ZM118.467 85.124C118.467 87.404 117.639 89.18 115.983 90.452C114.327 91.724 112.095 92.36 109.287 92.36C107.847 92.36 106.515 92.252 105.291 92.036C104.067 91.82 103.047 91.52 102.231 91.136V88.04C103.095 88.424 104.163 88.772 105.435 89.084C106.731 89.396 108.063 89.552 109.431 89.552C111.351 89.552 112.791 89.18 113.751 88.436C114.735 87.692 115.227 86.684 115.227 85.412C115.227 84.572 115.047 83.864 114.687 83.288C114.327 82.712 113.703 82.184 112.815 81.704C111.951 81.2 110.739 80.672 109.179 80.12C106.995 79.328 105.339 78.356 104.211 77.204C103.107 76.052 102.555 74.48 102.555 72.488C102.555 71.12 102.903 69.956 103.599 68.996C104.295 68.012 105.255 67.256 106.479 66.728C107.727 66.2 109.155 65.936 110.763 65.936C112.179 65.936 113.475 66.068 114.651 66.332C115.827 66.596 116.895 66.944 117.855 67.376L116.847 70.148C115.959 69.764 114.987 69.44 113.931 69.176C112.899 68.912 111.819 68.78 110.691 68.78C109.083 68.78 107.871 69.128 107.055 69.824C106.239 70.496 105.831 71.396 105.831 72.524C105.831 73.388 106.011 74.108 106.371 74.684C106.731 75.26 107.319 75.776 108.135 76.232C108.951 76.688 110.055 77.18 111.447 77.708C112.959 78.26 114.231 78.86 115.263 79.508C116.319 80.132 117.111 80.888 117.639 81.776C118.191 82.664 118.467 83.78 118.467 85.124ZM51.072 137.124C51.072 139.404 50.244 141.18 48.588 142.452C46.932 143.724 44.7 144.36 41.892 144.36C40.452 144.36 39.12 144.252 37.896 144.036C36.672 143.82 35.652 143.52 34.836 143.136V140.04C35.7 140.424 36.768 140.772 38.04 141.084C39.336 141.396 40.668 141.552 42.036 141.552C43.956 141.552 45.396 141.18 46.356 140.436C47.34 139.692 47.832 138.684 47.832 137.412C47.832 136.572 47.652 135.864 47.292 135.288C46.932 134.712 46.308 134.184 45.42 133.704C44.556 133.2 43.344 132.672 41.784 132.12C39.6 131.328 37.944 130.356 36.816 129.204C35.712 128.052 35.16 126.48 35.16 124.488C35.16 123.12 35.508 121.956 36.204 120.996C36.9 120.012 37.86 119.256 39.084 118.728C40.332 118.2 41.76 117.936 43.368 117.936C44.784 117.936 46.08 118.068 47.256 118.332C48.432 118.596 49.5 118.944 50.46 119.376L49.452 122.148C48.564 121.764 47.592 121.44 46.536 121.176C45.504 120.912 44.424 120.78 43.296 120.78C41.688 120.78 40.476 121.128 39.66 121.824C38.844 122.496 38.436 123.396 38.436 124.524C38.436 125.388 38.616 126.108 38.976 126.684C39.336 127.26 39.924 127.776 40.74 128.232C41.556 128.688 42.66 129.18 44.052 129.708C45.564 130.26 46.836 130.86 47.868 131.508C48.924 132.132 49.716 132.888 50.244 133.776C50.796 134.664 51.072 135.78 51.072 137.124ZM67.2658 120.78C64.5058 120.78 62.3338 121.704 60.7498 123.552C59.1658 125.4 58.3738 127.932 58.3738 131.148C58.3738 134.34 59.1058 136.872 60.5698 138.744C62.0578 140.592 64.2778 141.516 67.2298 141.516C68.3578 141.516 69.4258 141.42 70.4338 141.228C71.4418 141.036 72.4258 140.796 73.3858 140.508V143.316C72.4258 143.676 71.4298 143.94 70.3978 144.108C69.3898 144.276 68.1778 144.36 66.7618 144.36C64.1458 144.36 61.9618 143.82 60.2098 142.74C58.4578 141.66 57.1378 140.124 56.2498 138.132C55.3858 136.14 54.9538 133.8 54.9538 131.112C54.9538 128.52 55.4218 126.24 56.3578 124.272C57.3178 122.28 58.7218 120.732 60.5698 119.628C62.4178 118.5 64.6618 117.936 67.3018 117.936C70.0138 117.936 72.3778 118.44 74.3938 119.448L73.0978 122.184C72.3058 121.824 71.4178 121.5 70.4338 121.212C69.4738 120.924 68.4178 120.78 67.2658 120.78ZM98.6519 144H95.4119V132.012H82.2359V144H78.9959V118.296H82.2359V129.168H95.4119V118.296H98.6519V144ZM128.108 131.112C128.108 133.776 127.652 136.104 126.74 138.096C125.852 140.064 124.532 141.6 122.78 142.704C121.028 143.808 118.856 144.36 116.264 144.36C113.6 144.36 111.38 143.808 109.604 142.704C107.852 141.6 106.544 140.052 105.68 138.06C104.816 136.068 104.384 133.74 104.384 131.076C104.384 128.436 104.816 126.132 105.68 124.164C106.544 122.196 107.852 120.66 109.604 119.556C111.38 118.452 113.612 117.9 116.3 117.9C118.868 117.9 121.028 118.452 122.78 119.556C124.532 120.636 125.852 122.172 126.74 124.164C127.652 126.132 128.108 128.448 128.108 131.112ZM107.804 131.112C107.804 134.352 108.488 136.908 109.856 138.78C111.224 140.628 113.36 141.552 116.264 141.552C119.192 141.552 121.328 140.628 122.672 138.78C124.016 136.908 124.688 134.352 124.688 131.112C124.688 127.872 124.016 125.34 122.672 123.516C121.328 121.668 119.204 120.744 116.3 120.744C113.396 120.744 111.248 121.668 109.856 123.516C108.488 125.34 107.804 127.872 107.804 131.112ZM156.233 131.112C156.233 133.776 155.777 136.104 154.865 138.096C153.977 140.064 152.657 141.6 150.905 142.704C149.153 143.808 146.981 144.36 144.389 144.36C141.725 144.36 139.505 143.808 137.729 142.704C135.977 141.6 134.669 140.052 133.805 138.06C132.941 136.068 132.509 133.74 132.509 131.076C132.509 128.436 132.941 126.132 133.805 124.164C134.669 122.196 135.977 120.66 137.729 119.556C139.505 118.452 141.737 117.9 144.425 117.9C146.993 117.9 149.153 118.452 150.905 119.556C152.657 120.636 153.977 122.172 154.865 124.164C155.777 126.132 156.233 128.448 156.233 131.112ZM135.929 131.112C135.929 134.352 136.613 136.908 137.981 138.78C139.349 140.628 141.485 141.552 144.389 141.552C147.317 141.552 149.453 140.628 150.797 138.78C152.141 136.908 152.812 134.352 152.812 131.112C152.812 127.872 152.141 125.34 150.797 123.516C149.453 121.668 147.329 120.744 144.425 120.744C141.521 120.744 139.373 121.668 137.981 123.516C136.613 125.34 135.929 127.872 135.929 131.112ZM161.93 144V118.296H165.17V141.12H176.402V144H161.93Z" fill="black"/>
<path d="M211 41C211 54.5082 204.387 66.4903 194.187 73.9606C189.916 77.0867 185.018 79.4228 179.712 80.7482C176.445 81.5666 173.025 82 169.5 82C165.975 82 162.553 81.5666 159.286 80.7482C153.981 79.4228 149.082 77.0867 144.812 73.9589C134.611 66.4885 128 54.5066 128 41C128 18.3563 146.58 0 169.5 0C192.42 0 211 18.3563 211 41Z" fill="#5ADAFD"/>
<path d="M194.229 64.0856C194.034 62.7953 193.777 61.4665 193.458 60.1078C193.177 58.9146 192.85 57.6979 192.479 56.4629C191.504 53.2198 190.218 49.8494 188.66 46.4423C187.977 44.9528 187.242 43.4568 186.458 41.9624C185.766 40.6454 185.038 39.3267 184.271 38.0163C183.505 36.7043 182.716 35.4224 181.904 34.1724C180.988 32.755 180.045 31.3794 179.079 30.0506C176.873 27.0132 174.561 24.227 172.205 21.7702C171.309 20.8347 170.406 19.9478 169.5 19.1127C168.469 18.1588 167.432 17.2737 166.397 16.462C159.64 11.1621 153.591 9.57063 149.362 11.9821C145.132 14.3952 143.502 20.3661 144.77 28.7988C144.963 30.089 145.222 31.4179 145.542 32.7766C145.82 33.9698 146.147 35.1865 146.519 36.4215C147.495 39.6646 148.781 43.0367 150.341 46.4421C151.022 47.9316 151.757 49.4258 152.541 50.9202C153.232 52.239 153.962 53.5559 154.728 54.8679C155.494 56.1799 156.283 57.4618 157.094 58.7118C158.012 60.131 158.956 61.5066 159.92 62.8352C162.125 65.8726 164.437 68.6572 166.793 71.1139C167.69 72.0493 168.594 72.9379 169.5 73.7729C170.532 74.7268 171.568 75.6104 172.602 76.4221C175.087 78.3717 177.475 79.8192 179.713 80.7481C185.018 79.4226 189.916 77.0866 194.187 73.9605C194.783 71.2463 194.805 67.9211 194.229 64.0856ZM190.424 73.3516C189.931 75.4568 189.025 76.8993 187.729 77.6373C186.435 78.3769 184.718 78.4306 182.626 77.8013C180.359 77.1168 177.714 75.6208 174.973 73.4704C174.051 72.7475 173.128 71.9609 172.205 71.1158C171.301 70.2857 170.396 69.3987 169.498 68.4599C167.957 66.8484 166.432 65.0845 164.945 63.1919C163.953 61.9284 162.975 60.6081 162.022 59.2375C160.638 57.2511 159.301 55.1593 158.031 52.9837C156.759 50.8081 155.593 48.6193 154.545 46.4421C153.82 44.941 153.151 43.445 152.541 41.964C151.624 39.745 150.84 37.5578 150.198 35.4341C149.826 34.1958 149.499 32.9808 149.226 31.791C148.945 30.5794 148.716 29.3946 148.543 28.245C148.028 24.8261 148.04 21.8139 148.574 19.533C149.067 17.4277 149.975 15.9852 151.269 15.2472C151.968 14.8489 152.79 14.6481 153.726 14.6481C154.526 14.6481 155.41 14.7936 156.372 15.0848C158.639 15.7676 161.284 17.2653 164.025 19.4142C164.946 20.1371 165.871 20.9236 166.793 21.7721C167.699 22.6005 168.602 23.4874 169.498 24.4246C171.041 26.0361 172.566 27.8001 174.055 29.6944C175.047 30.9579 176.025 32.2782 176.978 33.6488C178.36 35.6353 179.697 37.7271 180.967 39.9009C182.239 42.0764 183.405 44.2653 184.453 46.4424C185.178 47.9452 185.847 49.4414 186.457 50.9223C187.373 53.1413 188.158 55.3269 188.8 57.4505C189.172 58.6888 189.499 59.9037 189.774 61.0935C190.053 62.3051 190.282 63.4899 190.455 64.6395C190.97 68.0584 190.958 71.0706 190.424 73.3516Z" fill="#F2F2F2"/>
<path d="M197.33 34.1071C196.102 33.6285 194.808 33.185 193.456 32.7766C192.271 32.4201 191.041 32.0905 189.772 31.791C186.442 31.0045 182.844 30.4188 179.079 30.0506C177.434 29.8882 175.755 29.7695 174.055 29.6941C172.554 29.6256 171.033 29.5903 169.5 29.5903C167.967 29.5903 166.446 29.6254 164.943 29.6941C163.241 29.7694 161.562 29.89 159.918 30.0506C156.152 30.4188 152.556 31.0045 149.226 31.791C147.957 32.0905 146.727 32.4203 145.542 32.7766C144.19 33.1833 142.896 33.6285 141.668 34.1071C133.644 37.2364 129.223 41.6176 129.223 46.4421C129.223 51.2667 133.644 55.6479 141.668 58.779C142.896 59.2575 144.188 59.701 145.54 60.1094C146.726 60.4659 147.955 60.7955 149.224 61.0934C152.555 61.8815 156.152 62.4656 159.919 62.8354C161.564 62.996 163.243 63.1149 164.945 63.1919C166.446 63.2605 167.967 63.2939 169.5 63.2939C171.033 63.2939 172.552 63.2605 174.053 63.1919C175.755 63.1149 177.432 62.996 179.079 62.8354C182.844 62.4672 186.444 61.8815 189.774 61.0934C191.043 60.7939 192.272 60.4659 193.458 60.1078C194.808 59.7011 196.102 59.2577 197.33 58.779C205.356 55.6479 209.775 51.2668 209.775 46.4421C209.775 41.6176 205.356 37.2364 197.33 34.1071ZM203.55 50.8902C201.819 52.4883 199.183 54.0028 195.929 55.273C194.834 55.6996 193.682 56.098 192.479 56.4628C191.298 56.8227 190.07 57.1523 188.8 57.4502C186.616 57.9639 184.308 58.3856 181.904 58.712C180.302 58.9313 178.657 59.107 176.978 59.2359C174.544 59.4284 172.042 59.5255 169.5 59.5255C166.957 59.5255 164.455 59.4284 162.021 59.2377C160.343 59.1071 158.696 58.9314 157.094 58.7122C154.69 58.3858 152.382 57.9641 150.198 57.4503C148.928 57.1524 147.7 56.8228 146.519 56.4629C145.316 56.0981 144.165 55.6998 143.069 55.2731C139.815 54.0029 137.179 52.4885 135.448 50.8903C133.849 49.4159 133.037 47.9199 133.037 46.4423C133.037 44.9647 133.849 43.4685 135.448 41.9943C137.179 40.3961 139.815 38.8816 143.069 37.6114C144.164 37.1848 145.316 36.7865 146.519 36.4216C147.7 36.0618 148.928 35.7322 150.198 35.4343C152.382 34.9205 154.69 34.4988 157.094 34.1724C158.696 33.9531 160.343 33.7775 162.021 33.6469C164.455 33.4562 166.957 33.3591 169.5 33.3591C172.042 33.3591 174.544 33.4562 176.978 33.6487C178.657 33.7776 180.302 33.9533 181.904 34.1726C184.308 34.499 186.616 34.9207 188.8 35.4344C190.07 35.7323 191.298 36.0619 192.479 36.4218C193.682 36.7866 194.833 37.1849 195.929 37.6116C199.183 38.8818 201.819 40.3962 203.55 41.9944C205.149 43.4688 205.961 44.9649 205.961 46.4425C205.961 47.9199 205.149 49.4159 203.55 50.8902Z" fill="#F2F2F2"/>
<path d="M189.637 11.9821C185.407 9.57063 179.358 11.1621 172.601 16.462C171.568 17.2737 170.531 18.1588 169.5 19.1127C168.594 19.9478 167.689 20.8363 166.793 21.7718C164.437 24.2284 162.125 27.0131 159.918 30.0504C158.954 31.3791 158.01 32.7548 157.094 34.1722C156.283 35.4222 155.494 36.7041 154.728 38.0161C153.962 39.3281 153.232 40.6451 152.541 41.9638C151.757 43.4582 151.022 44.9543 150.341 46.442C148.781 49.8491 147.495 53.2194 146.519 56.4626C146.147 57.6993 145.82 58.9159 145.54 60.109C145.222 61.468 144.963 62.795 144.77 64.0852C144.194 67.9192 144.216 71.2444 144.812 73.9587C149.082 77.0864 153.981 79.4226 159.286 80.7481C161.524 79.8193 163.912 78.3717 166.397 76.4221C167.432 75.6104 168.469 74.7252 169.5 73.7729C170.406 72.9379 171.309 72.0509 172.205 71.1155C174.56 68.6588 176.874 65.8724 179.079 62.8351C180.043 61.5062 180.987 60.1307 181.905 58.7117C182.716 57.4617 183.505 56.1798 184.271 54.8678C185.038 53.5574 185.766 52.2404 186.458 50.9217C187.242 49.4273 187.977 47.9312 188.66 46.4418C190.218 43.0362 191.504 39.6643 192.479 36.4211C192.85 35.1862 193.177 33.9695 193.457 32.7763C193.777 31.4174 194.034 30.0887 194.229 28.7985C195.496 20.3661 193.866 14.3952 189.637 11.9821ZM188.8 35.4341C188.158 37.5578 187.374 39.7433 186.457 41.9622C185.848 43.4432 185.179 44.9394 184.454 46.4421C183.405 48.6193 182.24 50.8081 180.968 52.9837C179.697 55.1575 178.361 57.2493 176.979 59.2357C176.023 60.6079 175.046 61.9283 174.053 63.1917C172.566 65.0845 171.042 66.8483 169.498 68.4597C168.603 69.3968 167.7 70.2838 166.793 71.1139C165.872 71.9606 164.947 72.7471 164.026 73.4701C161.285 75.6205 158.639 77.1165 156.373 77.801C154.281 78.4303 152.563 78.3766 151.269 77.637C149.975 76.899 149.067 75.4565 148.574 73.3512C148.041 71.0703 148.029 68.0581 148.544 64.6392C148.716 63.4896 148.945 62.3048 149.224 61.0932C149.499 59.9034 149.826 58.6885 150.198 57.4501C150.84 55.3265 151.625 53.1392 152.541 50.9202C153.151 49.4393 153.82 47.9431 154.545 46.4421C155.593 44.2649 156.759 42.0761 158.031 39.9005C159.301 37.725 160.638 35.6332 162.022 33.6468C162.975 32.2761 163.951 30.9558 164.944 29.6941C166.433 27.7998 167.957 26.036 169.498 24.4243C170.396 23.4855 171.301 22.5985 172.205 21.7702C173.128 20.9235 174.051 20.1369 174.973 19.414C177.714 17.2653 180.36 15.7676 182.626 15.0846C183.588 14.7935 184.472 14.6479 185.272 14.6479C186.208 14.6479 187.031 14.8487 187.729 15.247C189.025 15.985 189.931 17.4276 190.424 19.5328C190.958 21.8138 190.97 24.826 190.455 28.2448C190.282 29.3944 190.053 30.5793 189.772 31.7909C189.5 32.9807 189.173 34.1956 188.8 35.4341Z" fill="#F2F2F2"/>
<path d="M169.5 53.9208C173.681 53.9208 177.07 50.5725 177.07 46.4421C177.07 42.3118 173.681 38.9635 169.5 38.9635C165.319 38.9635 161.93 42.3118 161.93 46.4421C161.93 50.5725 165.319 53.9208 169.5 53.9208Z" fill="#F2F2F2"/>
</svg>
