<svg width="453" height="453" viewBox="0 0 453 453" fill="none" xmlns="http://www.w3.org/2000/svg">
<path d="M406 148C406 172.71 394.049 194.629 375.614 208.294C367.897 214.012 359.044 218.286 349.456 220.71C343.551 222.207 337.37 223 331 223C324.63 223 318.446 222.207 312.541 220.71C302.953 218.286 294.1 214.012 286.383 208.291C267.948 194.625 256 172.707 256 148C256 106.579 289.579 73 331 73C372.421 73 406 106.579 406 148Z" fill="#5ADAFD"/>
<path d="M377.481 181.319C377.129 178.959 376.663 176.528 376.088 174.043C375.58 171.86 374.989 169.634 374.319 167.375C372.555 161.443 370.232 155.278 367.416 149.045C366.182 146.32 364.854 143.584 363.436 140.85C362.187 138.441 360.871 136.029 359.484 133.632C358.1 131.232 356.674 128.887 355.208 126.6C353.551 124.007 351.846 121.491 350.101 119.06C346.116 113.504 341.937 108.407 337.679 103.913C336.06 102.202 334.428 100.579 332.79 99.0519C330.926 97.307 329.052 95.6877 327.182 94.203C314.971 84.508 304.039 81.5968 296.395 86.008C288.751 90.4222 285.806 101.345 288.096 116.77C288.445 119.13 288.914 121.561 289.492 124.047C289.994 126.229 290.585 128.455 291.259 130.714C293.022 136.647 295.345 142.815 298.165 149.045C299.396 151.769 300.724 154.503 302.141 157.236C303.39 159.649 304.71 162.058 306.093 164.458C307.477 166.858 308.904 169.203 310.37 171.489C312.029 174.085 313.734 176.602 315.476 179.032C319.462 184.588 323.64 189.682 327.898 194.176C329.518 195.887 331.152 197.513 332.79 199.04C334.654 200.785 336.528 202.401 338.395 203.886C342.886 207.452 347.202 210.1 351.246 211.799C360.834 209.375 369.687 205.102 377.404 199.383C378.482 194.418 378.521 188.336 377.481 181.319ZM370.605 198.269C369.714 202.12 368.076 204.759 365.735 206.109C363.396 207.462 360.292 207.56 356.511 206.409C352.415 205.157 347.634 202.42 342.681 198.487C341.016 197.164 339.347 195.725 337.679 194.179C336.044 192.661 334.409 191.038 332.787 189.321C330.001 186.373 327.246 183.146 324.558 179.684C322.764 177.373 320.998 174.958 319.275 172.451C316.774 168.817 314.358 164.991 312.062 161.011C309.763 157.031 307.657 153.027 305.762 149.045C304.452 146.299 303.243 143.562 302.141 140.853C300.485 136.794 299.067 132.793 297.907 128.908C297.234 126.643 296.643 124.42 296.15 122.244C295.642 120.028 295.229 117.86 294.916 115.757C293.986 109.503 294.007 103.993 294.971 99.8206C295.862 95.9696 297.503 93.3308 299.842 91.9808C301.106 91.2522 302.591 90.8848 304.283 90.8848C305.728 90.8848 307.326 91.1511 309.065 91.6837C313.161 92.9327 317.942 95.6725 322.895 99.6033C324.561 100.926 326.232 102.364 327.898 103.917C329.535 105.432 331.167 107.054 332.786 108.769C335.575 111.717 338.33 114.943 341.021 118.409C342.815 120.72 344.581 123.135 346.305 125.642C348.803 129.276 351.218 133.102 353.514 137.079C355.813 141.059 357.919 145.063 359.814 149.045C361.124 151.794 362.333 154.531 363.435 157.24C365.091 161.299 366.509 165.297 367.669 169.182C368.342 171.447 368.933 173.67 369.429 175.846C369.934 178.062 370.348 180.23 370.66 182.333C371.591 188.587 371.57 194.097 370.605 198.269Z" fill="#F2F2F2"/>
<path d="M383.086 126.481C380.866 125.605 378.528 124.794 376.085 124.047C373.942 123.395 371.72 122.792 369.426 122.244C363.408 120.805 356.906 119.734 350.101 119.06C347.129 118.763 344.095 118.546 341.021 118.408C338.309 118.283 335.56 118.218 332.79 118.218C330.02 118.218 327.27 118.282 324.555 118.408C321.479 118.546 318.445 118.766 315.472 119.06C308.667 119.734 302.168 120.805 296.15 122.244C293.857 122.792 291.635 123.395 289.492 124.047C287.049 124.791 284.71 125.605 282.491 126.481C267.99 132.205 260 140.219 260 149.045C260 157.87 267.99 165.885 282.491 171.612C284.71 172.487 287.046 173.299 289.489 174.046C291.632 174.698 293.854 175.301 296.147 175.846C302.166 177.287 308.667 178.356 315.476 179.032C318.448 179.326 321.482 179.544 324.558 179.685C327.271 179.81 330.02 179.871 332.79 179.871C335.56 179.871 338.306 179.81 341.018 179.685C344.095 179.544 347.126 179.326 350.101 179.032C356.906 178.359 363.411 177.287 369.43 175.846C371.722 175.298 373.945 174.698 376.088 174.043C378.528 173.299 380.867 172.488 383.086 171.612C397.59 165.885 405.577 157.87 405.577 149.045C405.576 140.219 397.59 132.205 383.086 126.481ZM394.326 157.181C391.198 160.105 386.435 162.875 380.554 165.199C378.574 165.979 376.492 166.708 374.318 167.375C372.184 168.033 369.965 168.636 367.669 169.181C363.723 170.121 359.551 170.893 355.207 171.49C352.311 171.891 349.338 172.212 346.305 172.448C341.906 172.8 337.384 172.978 332.79 172.978C328.195 172.978 323.673 172.8 319.274 172.451C316.241 172.212 313.265 171.891 310.369 171.49C306.025 170.893 301.853 170.121 297.907 169.182C295.611 168.637 293.392 168.034 291.258 167.375C289.084 166.708 287.003 165.979 285.022 165.199C279.142 162.875 274.378 160.105 271.25 157.182C268.36 154.485 266.894 151.748 266.894 149.045C266.894 146.342 268.36 143.605 271.25 140.908C274.378 137.985 279.141 135.214 285.022 132.891C287.003 132.11 289.084 131.382 291.258 130.714C293.392 130.056 295.611 129.453 297.907 128.908C301.853 127.968 306.025 127.197 310.369 126.6C313.265 126.199 316.241 125.878 319.274 125.639C323.673 125.29 328.195 125.112 332.79 125.112C337.384 125.112 341.906 125.29 346.305 125.642C349.338 125.878 352.311 126.199 355.207 126.6C359.551 127.197 363.723 127.969 367.669 128.909C369.965 129.454 372.184 130.056 374.318 130.715C376.492 131.382 378.573 132.111 380.554 132.891C386.434 135.215 391.198 137.985 394.326 140.909C397.216 143.606 398.683 146.342 398.683 149.045C398.683 151.748 397.216 154.485 394.326 157.181Z" fill="#F2F2F2"/>
<path d="M369.182 86.008C361.538 81.5968 350.606 84.508 338.395 94.203C336.528 95.6877 334.654 97.307 332.79 99.0519C331.152 100.579 329.517 102.205 327.898 103.916C323.64 108.41 319.462 113.504 315.473 119.06C313.731 121.49 312.026 124.007 310.37 126.6C308.903 128.886 307.477 131.231 306.093 133.631C304.71 136.031 303.39 138.44 302.141 140.853C300.724 143.586 299.395 146.323 298.165 149.044C295.345 155.277 293.022 161.442 291.259 167.375C290.585 169.637 289.994 171.863 289.489 174.045C288.914 176.531 288.445 178.959 288.096 181.319C287.055 188.332 287.095 194.415 288.173 199.38C295.89 205.101 304.743 209.375 314.331 211.799C318.375 210.1 322.691 207.452 327.182 203.886C329.052 202.401 330.926 200.782 332.79 199.04C334.428 197.513 336.06 195.89 337.679 194.179C341.934 189.685 346.116 184.588 350.102 179.032C351.843 176.601 353.549 174.085 355.208 171.489C356.674 169.202 358.101 166.857 359.484 164.457C360.871 162.06 362.187 159.651 363.436 157.239C364.854 154.505 366.182 151.769 367.416 149.044C370.232 142.814 372.556 136.646 374.319 130.714C374.989 128.455 375.58 126.229 376.085 124.046C376.664 121.56 377.129 119.13 377.481 116.77C379.77 101.345 376.826 90.4222 369.182 86.008ZM367.67 128.908C366.509 132.793 365.092 136.791 363.436 140.85C362.334 143.559 361.125 146.296 359.814 149.045C357.92 153.027 355.813 157.031 353.514 161.011C351.218 164.987 348.803 168.814 346.305 172.448C344.579 174.958 342.813 177.373 341.019 179.684C338.331 183.146 335.576 186.373 332.787 189.321C331.168 191.035 329.536 192.657 327.898 194.176C326.233 195.725 324.562 197.164 322.896 198.486C317.943 202.42 313.162 205.156 309.066 206.408C305.285 207.56 302.181 207.461 299.842 206.108C297.503 204.758 295.863 202.12 294.972 198.269C294.008 194.096 293.986 188.586 294.917 182.332C295.229 180.229 295.642 178.062 296.147 175.845C296.643 173.669 297.234 171.446 297.907 169.181C299.068 165.297 300.485 161.295 302.141 157.236C303.243 154.527 304.452 151.79 305.763 149.045C307.657 145.062 309.764 141.058 312.063 137.078C314.359 133.099 316.774 129.272 319.275 125.639C320.998 123.131 322.762 120.716 324.555 118.408C327.246 114.943 330.001 111.716 332.787 108.768C334.409 107.051 336.044 105.428 337.679 103.913C339.347 102.364 341.015 100.925 342.681 99.603C347.634 95.6725 352.416 92.9327 356.511 91.6834C358.25 91.1508 359.848 90.8845 361.293 90.8845C362.986 90.8845 364.473 91.2519 365.734 91.9805C368.076 93.3305 369.714 95.9693 370.605 99.8203C371.569 103.993 371.591 109.503 370.66 115.757C370.348 117.86 369.934 120.027 369.426 122.244C368.934 124.42 368.343 126.643 367.67 128.908Z" fill="#F2F2F2"/>
<path d="M332.79 162.725C340.345 162.725 346.47 156.6 346.47 149.045C346.47 141.489 340.345 135.364 332.79 135.364C325.234 135.364 319.109 141.489 319.109 149.045C319.109 156.6 325.234 162.725 332.79 162.725Z" fill="#F2F2F2"/>
<g filter="url(#filter0_d)">
<circle cx="226.5" cy="222.5" r="222.5" fill="white"/>
<circle cx="226.5" cy="222.5" r="220" stroke="black" stroke-width="5"/>
</g>
<path d="M124.521 165.267H110.159V190H102.055V128.859H122.295C129.182 128.859 134.473 130.427 138.168 133.562C141.891 136.698 143.753 141.261 143.753 147.252C143.753 151.059 142.717 154.377 140.646 157.204C138.602 160.032 135.746 162.145 132.079 163.545L146.44 189.496V190H137.79L124.521 165.267ZM110.159 158.674H122.547C126.55 158.674 129.728 157.638 132.079 155.566C134.459 153.495 135.648 150.723 135.648 147.252C135.648 143.473 134.515 140.575 132.247 138.56C130.007 136.544 126.76 135.522 122.505 135.494H110.159V158.674ZM173.105 162.747C166.191 160.759 161.152 158.324 157.988 155.44C154.853 152.529 153.285 148.946 153.285 144.69C153.285 139.875 155.203 135.9 159.038 132.765C162.901 129.601 167.912 128.02 174.071 128.02C178.271 128.02 182.008 128.831 185.283 130.455C188.587 132.079 191.134 134.318 192.926 137.174C194.745 140.029 195.655 143.151 195.655 146.538H187.551C187.551 142.843 186.375 139.945 184.023 137.846C181.672 135.718 178.354 134.654 174.071 134.654C170.096 134.654 166.989 135.536 164.749 137.3C162.537 139.035 161.432 141.457 161.432 144.564C161.432 147.056 162.481 149.17 164.581 150.905C166.709 152.613 170.306 154.181 175.373 155.608C180.468 157.036 184.443 158.618 187.299 160.354C190.182 162.061 192.31 164.063 193.682 166.358C195.081 168.654 195.781 171.355 195.781 174.463C195.781 179.418 193.85 183.393 189.986 186.389C186.123 189.356 180.958 190.84 174.491 190.84C170.292 190.84 166.373 190.042 162.733 188.446C159.094 186.823 156.281 184.611 154.293 181.812C152.333 179.012 151.354 175.835 151.354 172.279H159.458C159.458 175.975 160.816 178.9 163.531 181.056C166.275 183.183 169.928 184.247 174.491 184.247C178.746 184.247 182.008 183.379 184.275 181.644C186.543 179.908 187.677 177.542 187.677 174.547C187.677 171.551 186.627 169.242 184.527 167.618C182.428 165.966 178.62 164.343 173.105 162.747ZM120.111 263.747C113.197 261.759 108.158 259.324 104.994 256.44C101.859 253.529 100.291 249.946 100.291 245.69C100.291 240.875 102.209 236.9 106.044 233.765C109.907 230.601 114.918 229.02 121.077 229.02C125.276 229.02 129.014 229.831 132.289 231.455C135.592 233.079 138.14 235.318 139.932 238.174C141.751 241.029 142.661 244.151 142.661 247.538H134.557C134.557 243.843 133.381 240.945 131.029 238.846C128.678 236.718 125.36 235.654 121.077 235.654C117.102 235.654 113.994 236.536 111.755 238.3C109.543 240.035 108.438 242.457 108.438 245.564C108.438 248.056 109.487 250.17 111.587 251.905C113.715 253.613 117.312 255.181 122.379 256.608C127.474 258.036 131.449 259.618 134.305 261.354C137.188 263.061 139.316 265.063 140.688 267.358C142.087 269.654 142.787 272.355 142.787 275.463C142.787 280.418 140.855 284.393 136.992 287.389C133.129 290.356 127.964 291.84 121.497 291.84C117.298 291.84 113.379 291.042 109.739 289.446C106.1 287.823 103.286 285.611 101.299 282.812C99.3392 280.012 98.3594 276.835 98.3594 273.279H106.464C106.464 276.975 107.822 279.9 110.537 282.056C113.281 284.183 116.934 285.247 121.497 285.247C125.752 285.247 129.014 284.379 131.281 282.644C133.549 280.908 134.683 278.542 134.683 275.547C134.683 272.551 133.633 270.242 131.533 268.618C129.434 266.966 125.626 265.343 120.111 263.747ZM170.166 285.499C172.938 285.499 175.359 284.659 177.431 282.979C179.502 281.3 180.65 279.2 180.874 276.681H188.223C188.083 279.284 187.187 281.762 185.535 284.113C183.883 286.465 181.672 288.34 178.9 289.74C176.157 291.14 173.245 291.84 170.166 291.84C163.979 291.84 159.052 289.782 155.385 285.667C151.745 281.524 149.926 275.869 149.926 268.702V267.4C149.926 262.977 150.738 259.044 152.361 255.601C153.985 252.157 156.309 249.484 159.332 247.58C162.383 245.676 165.981 244.725 170.124 244.725C175.219 244.725 179.446 246.25 182.806 249.302C186.193 252.353 187.999 256.314 188.223 261.186H180.874C180.65 258.246 179.53 255.839 177.515 253.963C175.527 252.059 173.063 251.107 170.124 251.107C166.177 251.107 163.111 252.535 160.928 255.391C158.772 258.218 157.694 262.319 157.694 267.694V269.164C157.694 274.399 158.772 278.43 160.928 281.258C163.083 284.085 166.163 285.499 170.166 285.499ZM204.726 251.065C208.169 246.838 212.648 244.725 218.163 244.725C227.765 244.725 232.608 250.142 232.692 260.976V291H224.924V260.934C224.896 257.658 224.14 255.237 222.656 253.669C221.201 252.101 218.919 251.317 215.812 251.317C213.292 251.317 211.08 251.989 209.177 253.333C207.273 254.677 205.789 256.44 204.726 258.624V291H196.957V226.5H204.726V251.065ZM242.267 267.862C242.267 263.411 243.134 259.408 244.87 255.853C246.634 252.297 249.069 249.554 252.177 247.622C255.312 245.69 258.882 244.725 262.885 244.725C269.072 244.725 274.069 246.866 277.876 251.149C281.711 255.433 283.629 261.13 283.629 268.24V268.786C283.629 273.209 282.775 277.185 281.067 280.712C279.388 284.211 276.966 286.941 273.803 288.9C270.667 290.86 267.056 291.84 262.969 291.84C256.81 291.84 251.813 289.698 247.978 285.415C244.17 281.132 242.267 275.463 242.267 268.408V267.862ZM250.077 268.786C250.077 273.825 251.239 277.87 253.562 280.922C255.914 283.973 259.049 285.499 262.969 285.499C266.916 285.499 270.051 283.959 272.375 280.88C274.699 277.772 275.86 273.433 275.86 267.862C275.86 262.879 274.671 258.848 272.291 255.769C269.939 252.661 266.804 251.107 262.885 251.107C259.049 251.107 255.956 252.633 253.604 255.685C251.253 258.736 250.077 263.103 250.077 268.786ZM291.313 267.862C291.313 263.411 292.181 259.408 293.917 255.853C295.681 252.297 298.116 249.554 301.224 247.622C304.359 245.69 307.928 244.725 311.932 244.725C318.118 244.725 323.116 246.866 326.923 251.149C330.758 255.433 332.676 261.13 332.676 268.24V268.786C332.676 273.209 331.822 277.185 330.114 280.712C328.435 284.211 326.013 286.941 322.85 288.9C319.714 290.86 316.103 291.84 312.016 291.84C305.857 291.84 300.86 289.698 297.024 285.415C293.217 281.132 291.313 275.463 291.313 268.408V267.862ZM299.124 268.786C299.124 273.825 300.286 277.87 302.609 280.922C304.961 283.973 308.096 285.499 312.016 285.499C315.963 285.499 319.098 283.959 321.422 280.88C323.745 277.772 324.907 273.433 324.907 267.862C324.907 262.879 323.717 258.848 321.338 255.769C318.986 252.661 315.851 251.107 311.932 251.107C308.096 251.107 305.003 252.633 302.651 255.685C300.3 258.736 299.124 263.103 299.124 268.786ZM350.858 291H343.09V226.5H350.858V291Z" fill="black"/>
<path d="M362 147.5C362 170.398 349.969 190.709 331.412 203.372C323.643 208.671 314.731 212.631 305.079 214.878C299.135 216.265 292.913 217 286.5 217C280.087 217 273.862 216.265 267.918 214.878C258.266 212.631 249.354 208.671 241.585 203.369C223.028 190.706 211 170.395 211 147.5C211 109.116 244.802 78 286.5 78C328.198 78 362 109.116 362 147.5Z" fill="#5ADAFD"/>
<path d="M331.489 186.633C331.134 184.446 330.666 182.193 330.087 179.89C329.575 177.867 328.981 175.805 328.306 173.712C326.531 168.214 324.192 162.501 321.357 156.725C320.115 154.2 318.777 151.665 317.351 149.131C316.093 146.899 314.768 144.664 313.372 142.442C311.979 140.218 310.543 138.045 309.067 135.926C307.4 133.524 305.683 131.192 303.927 128.939C299.914 123.791 295.708 119.068 291.422 114.903C289.792 113.317 288.149 111.814 286.5 110.398C284.624 108.781 282.738 107.281 280.855 105.905C268.562 96.9211 257.558 94.2234 249.863 98.3111C242.168 102.402 239.203 112.523 241.508 126.818C241.86 129.005 242.331 131.257 242.914 133.56C243.419 135.583 244.014 137.645 244.692 139.739C246.467 145.236 248.806 150.952 251.644 156.725C252.883 159.25 254.22 161.783 255.647 164.316C256.904 166.551 258.233 168.784 259.625 171.008C261.018 173.232 262.454 175.405 263.93 177.524C265.601 179.929 267.317 182.261 269.071 184.513C273.083 189.662 277.289 194.382 281.576 198.547C283.206 200.132 284.852 201.639 286.5 203.054C288.377 204.671 290.263 206.169 292.143 207.545C296.664 210.849 301.009 213.303 305.079 214.878C314.731 212.631 323.643 208.671 331.412 203.372C332.496 198.771 332.536 193.135 331.489 186.633ZM324.567 202.34C323.67 205.908 322.022 208.354 319.665 209.605C317.31 210.858 314.185 210.949 310.379 209.883C306.256 208.722 301.443 206.186 296.457 202.541C294.78 201.316 293.101 199.983 291.421 198.55C289.776 197.143 288.13 195.639 286.497 194.048C283.693 191.316 280.919 188.326 278.214 185.118C276.408 182.976 274.63 180.738 272.895 178.415C270.377 175.047 267.946 171.502 265.634 167.814C263.32 164.126 261.2 160.416 259.292 156.725C257.973 154.18 256.756 151.644 255.647 149.134C253.98 145.373 252.553 141.665 251.385 138.065C250.707 135.966 250.112 133.906 249.616 131.89C249.104 129.836 248.688 127.827 248.374 125.879C247.437 120.083 247.459 114.977 248.429 111.111C249.326 107.542 250.978 105.097 253.332 103.846C254.605 103.171 256.099 102.83 257.803 102.83C259.258 102.83 260.867 103.077 262.617 103.571C266.74 104.728 271.554 107.267 276.54 110.909C278.216 112.135 279.898 113.468 281.575 114.906C283.224 116.311 284.866 117.814 286.496 119.403C289.304 122.134 292.077 125.125 294.786 128.336C296.592 130.477 298.37 132.715 300.105 135.039C302.62 138.406 305.051 141.952 307.362 145.637C309.676 149.325 311.797 153.035 313.704 156.726C315.023 159.273 316.24 161.809 317.35 164.32C319.017 168.081 320.444 171.786 321.612 175.386C322.29 177.485 322.884 179.544 323.383 181.561C323.892 183.615 324.308 185.623 324.622 187.572C325.56 193.367 325.538 198.473 324.567 202.34Z" fill="#F2F2F2"/>
<path d="M337.131 135.816C334.897 135.004 332.543 134.253 330.084 133.56C327.926 132.956 325.689 132.397 323.381 131.89C317.322 130.556 310.777 129.564 303.927 128.939C300.934 128.664 297.88 128.463 294.786 128.335C292.056 128.219 289.289 128.159 286.5 128.159C283.711 128.159 280.944 128.219 278.21 128.335C275.113 128.463 272.059 128.667 269.067 128.939C262.217 129.564 255.674 130.556 249.616 131.89C247.308 132.397 245.071 132.956 242.913 133.56C240.454 134.25 238.1 135.004 235.865 135.816C221.268 141.12 213.225 148.547 213.225 156.725C213.225 164.903 221.268 172.33 235.866 177.637C238.1 178.449 240.451 179.2 242.91 179.893C245.067 180.497 247.305 181.056 249.613 181.561C255.671 182.897 262.217 183.887 269.07 184.514C272.063 184.786 275.117 184.987 278.214 185.118C280.944 185.234 283.711 185.291 286.5 185.291C289.289 185.291 292.053 185.234 294.783 185.118C297.88 184.987 300.931 184.786 303.927 184.514C310.777 183.89 317.325 182.897 323.384 181.561C325.692 181.053 327.929 180.497 330.087 179.89C332.543 179.201 334.897 178.449 337.131 177.637C351.732 172.33 359.772 164.904 359.772 156.725C359.772 148.547 351.732 141.12 337.131 135.816ZM348.447 164.265C345.297 166.974 340.503 169.541 334.583 171.694C332.589 172.418 330.493 173.093 328.305 173.711C326.157 174.321 323.923 174.88 321.612 175.385C317.64 176.256 313.439 176.971 309.066 177.524C306.151 177.896 303.159 178.193 300.105 178.412C295.677 178.738 291.125 178.903 286.5 178.903C281.874 178.903 277.323 178.738 272.894 178.415C269.84 178.194 266.845 177.896 263.93 177.524C259.557 176.971 255.357 176.256 251.384 175.385C249.073 174.88 246.839 174.322 244.691 173.712C242.503 173.093 240.408 172.418 238.414 171.695C232.494 169.542 227.699 166.974 224.55 164.265C221.64 161.766 220.164 159.23 220.164 156.725C220.164 154.221 221.64 151.684 224.55 149.185C227.699 146.476 232.494 143.909 238.414 141.756C240.408 141.033 242.503 140.358 244.691 139.739C246.839 139.129 249.073 138.57 251.384 138.065C255.357 137.194 259.557 136.48 263.93 135.926C266.845 135.555 269.84 135.257 272.894 135.036C277.323 134.712 281.874 134.548 286.5 134.548C291.125 134.548 295.677 134.712 300.105 135.039C303.159 135.257 306.151 135.555 309.066 135.927C313.439 136.48 317.64 137.195 321.612 138.066C323.923 138.571 326.157 139.129 328.305 139.739C330.493 140.358 332.589 141.033 334.583 141.756C340.502 143.909 345.297 146.477 348.447 149.186C351.356 151.685 352.832 154.221 352.832 156.726C352.832 159.23 351.356 161.766 348.447 164.265Z" fill="#F2F2F2"/>
<path d="M323.134 98.3111C315.439 94.2234 304.435 96.9211 292.142 105.905C290.263 107.281 288.377 108.781 286.5 110.398C284.851 111.814 283.206 113.32 281.576 114.906C277.289 119.07 273.083 123.79 269.067 128.939C267.314 131.191 265.597 133.523 263.93 135.926C262.454 138.045 261.018 140.218 259.625 142.442C258.233 144.666 256.905 146.898 255.647 149.134C254.22 151.667 252.883 154.203 251.644 156.725C248.806 162.5 246.467 168.213 244.692 173.711C244.014 175.807 243.419 177.87 242.91 179.892C242.331 182.196 241.86 184.445 241.508 186.632C240.461 193.131 240.501 198.768 241.585 203.369C249.354 208.671 258.266 212.631 267.918 214.878C271.989 213.303 276.334 210.849 280.855 207.545C282.738 206.169 284.624 204.668 286.501 203.054C288.149 201.639 289.792 200.135 291.422 198.549C295.705 194.385 299.915 189.662 303.927 184.513C305.68 182.261 307.397 179.929 309.067 177.523C310.543 175.405 311.979 173.232 313.372 171.008C314.768 168.786 316.093 166.554 317.351 164.318C318.778 161.785 320.115 159.249 321.357 156.724C324.192 150.952 326.531 145.236 328.306 139.738C328.981 137.645 329.576 135.582 330.084 133.56C330.667 131.256 331.135 129.004 331.489 126.817C333.794 112.523 330.829 102.402 323.134 98.3111ZM321.612 138.065C320.444 141.665 319.017 145.37 317.35 149.131C316.241 151.641 315.024 154.178 313.705 156.725C311.797 160.416 309.677 164.126 307.363 167.814C305.051 171.499 302.62 175.045 300.106 178.412C298.368 180.738 296.59 182.976 294.784 185.118C292.078 188.326 289.305 191.316 286.497 194.048C284.867 195.636 283.225 197.14 281.576 198.547C279.9 199.982 278.217 201.315 276.54 202.541C271.554 206.186 266.741 208.722 262.618 209.882C258.812 210.949 255.687 210.858 253.333 209.604C250.978 208.353 249.326 205.908 248.43 202.339C247.459 198.473 247.438 193.367 248.374 187.571C248.689 185.623 249.105 183.614 249.613 181.56C250.112 179.544 250.707 177.484 251.385 175.385C252.553 171.785 253.98 168.077 255.647 164.316C256.756 161.806 257.974 159.269 259.292 156.725C261.2 153.034 263.32 149.324 265.635 145.636C267.946 141.948 270.377 138.403 272.895 135.035C274.63 132.712 276.405 130.474 278.211 128.335C280.919 125.124 283.693 122.134 286.497 119.402C288.13 117.811 289.776 116.307 291.421 114.903C293.101 113.468 294.78 112.135 296.457 110.909C301.443 107.267 306.256 104.728 310.379 103.57C312.13 103.077 313.738 102.83 315.193 102.83C316.897 102.83 318.395 103.17 319.664 103.846C322.021 105.097 323.67 107.542 324.567 111.111C325.538 114.977 325.559 120.083 324.622 125.878C324.308 127.827 323.892 129.836 323.38 131.889C322.885 133.906 322.29 135.966 321.612 138.065Z" fill="#F2F2F2"/>
<path d="M286.5 169.402C294.106 169.402 300.272 163.726 300.272 156.725C300.272 149.724 294.106 144.048 286.5 144.048C278.894 144.048 272.728 149.724 272.728 156.725C272.728 163.726 278.894 169.402 286.5 169.402Z" fill="#F2F2F2"/>
<defs>
<filter id="filter0_d" x="0" y="0" width="453" height="453" filterUnits="userSpaceOnUse" color-interpolation-filters="sRGB">
<feFlood flood-opacity="0" result="BackgroundImageFix"/>
<feColorMatrix in="SourceAlpha" type="matrix" values="0 0 0 0 0 0 0 0 0 0 0 0 0 0 0 0 0 0 127 0"/>
<feOffset dy="4"/>
<feGaussianBlur stdDeviation="2"/>
<feColorMatrix type="matrix" values="0 0 0 0 0 0 0 0 0 0 0 0 0 0 0 0 0 0 0.25 0"/>
<feBlend mode="normal" in2="BackgroundImageFix" result="effect1_dropShadow"/>
<feBlend mode="normal" in="SourceGraphic" in2="effect1_dropShadow" result="shape"/>
</filter>
</defs>
</svg>
