<svg width="275" height="189" viewBox="0 0 275 189" fill="none" xmlns="http://www.w3.org/2000/svg">
<path d="M199.953 94.5C199.953 145.774 155.62 187.5 100.727 187.5C45.8337 187.5 1.5 145.774 1.5 94.5C1.5 43.2262 45.8337 1.5 100.727 1.5C155.62 1.5 199.953 43.2262 199.953 94.5Z" fill="white" stroke="black" stroke-width="3"/>
<path d="M42.5607 47.296C45.7527 47.296 48.1047 47.908 49.6167 49.132C51.1527 50.332 51.9207 52.156 51.9207 54.604C51.9207 55.972 51.6687 57.112 51.1647 58.024C50.6607 58.936 50.0127 59.668 49.2207 60.22C48.4527 60.748 47.6367 61.168 46.7727 61.48L53.8287 73H50.0487L43.8207 62.38H38.7087V73H35.4687V47.296H42.5607ZM42.3807 50.104H38.7087V59.644H42.5607C44.6487 59.644 46.1727 59.236 47.1327 58.42C48.0927 57.58 48.5727 56.356 48.5727 54.748C48.5727 53.068 48.0687 51.88 47.0607 51.184C46.0527 50.464 44.4927 50.104 42.3807 50.104ZM117.443 66.124C117.443 68.404 116.615 70.18 114.959 71.452C113.303 72.724 111.071 73.36 108.263 73.36C106.823 73.36 105.491 73.252 104.267 73.036C103.043 72.82 102.023 72.52 101.207 72.136V69.04C102.071 69.424 103.139 69.772 104.411 70.084C105.707 70.396 107.039 70.552 108.407 70.552C110.327 70.552 111.767 70.18 112.727 69.436C113.711 68.692 114.203 67.684 114.203 66.412C114.203 65.572 114.023 64.864 113.663 64.288C113.303 63.712 112.679 63.184 111.791 62.704C110.927 62.2 109.715 61.672 108.155 61.12C105.971 60.328 104.315 59.356 103.187 58.204C102.083 57.052 101.531 55.48 101.531 53.488C101.531 52.12 101.879 50.956 102.575 49.996C103.271 49.012 104.231 48.256 105.455 47.728C106.703 47.2 108.131 46.936 109.739 46.936C111.155 46.936 112.451 47.068 113.627 47.332C114.803 47.596 115.871 47.944 116.831 48.376L115.823 51.148C114.935 50.764 113.963 50.44 112.907 50.176C111.875 49.912 110.795 49.78 109.667 49.78C108.059 49.78 106.847 50.128 106.031 50.824C105.215 51.496 104.807 52.396 104.807 53.524C104.807 54.388 104.987 55.108 105.347 55.684C105.707 56.26 106.295 56.776 107.111 57.232C107.927 57.688 109.031 58.18 110.423 58.708C111.935 59.26 113.207 59.86 114.239 60.508C115.295 61.132 116.087 61.888 116.615 62.776C117.167 63.664 117.443 64.78 117.443 66.124ZM50.0487 118.124C50.0487 120.404 49.2207 122.18 47.5647 123.452C45.9087 124.724 43.6767 125.36 40.8687 125.36C39.4287 125.36 38.0967 125.252 36.8727 125.036C35.6487 124.82 34.6287 124.52 33.8127 124.136V121.04C34.6767 121.424 35.7447 121.772 37.0167 122.084C38.3127 122.396 39.6447 122.552 41.0127 122.552C42.9327 122.552 44.3727 122.18 45.3327 121.436C46.3167 120.692 46.8087 119.684 46.8087 118.412C46.8087 117.572 46.6287 116.864 46.2687 116.288C45.9087 115.712 45.2847 115.184 44.3967 114.704C43.5327 114.2 42.3207 113.672 40.7607 113.12C38.5767 112.328 36.9207 111.356 35.7927 110.204C34.6887 109.052 34.1367 107.48 34.1367 105.488C34.1367 104.12 34.4847 102.956 35.1807 101.996C35.8767 101.012 36.8367 100.256 38.0607 99.728C39.3087 99.2 40.7367 98.936 42.3447 98.936C43.7607 98.936 45.0567 99.068 46.2327 99.332C47.4087 99.596 48.4767 99.944 49.4367 100.376L48.4287 103.148C47.5407 102.764 46.5687 102.44 45.5127 102.176C44.4807 101.912 43.4007 101.78 42.2727 101.78C40.6647 101.78 39.4527 102.128 38.6367 102.824C37.8207 103.496 37.4127 104.396 37.4127 105.524C37.4127 106.388 37.5927 107.108 37.9527 107.684C38.3127 108.26 38.9007 108.776 39.7167 109.232C40.5327 109.688 41.6367 110.18 43.0287 110.708C44.5407 111.26 45.8127 111.86 46.8447 112.508C47.9007 113.132 48.6927 113.888 49.2207 114.776C49.7727 115.664 50.0487 116.78 50.0487 118.124ZM66.2426 101.78C63.4826 101.78 61.3106 102.704 59.7266 104.552C58.1426 106.4 57.3506 108.932 57.3506 112.148C57.3506 115.34 58.0826 117.872 59.5466 119.744C61.0346 121.592 63.2546 122.516 66.2066 122.516C67.3346 122.516 68.4026 122.42 69.4106 122.228C70.4186 122.036 71.4026 121.796 72.3626 121.508V124.316C71.4026 124.676 70.4066 124.94 69.3746 125.108C68.3666 125.276 67.1546 125.36 65.7386 125.36C63.1226 125.36 60.9386 124.82 59.1866 123.74C57.4346 122.66 56.1146 121.124 55.2266 119.132C54.3626 117.14 53.9306 114.8 53.9306 112.112C53.9306 109.52 54.3986 107.24 55.3346 105.272C56.2946 103.28 57.6986 101.732 59.5466 100.628C61.3946 99.5 63.6386 98.936 66.2786 98.936C68.9906 98.936 71.3546 99.44 73.3706 100.448L72.0746 103.184C71.2826 102.824 70.3946 102.5 69.4106 102.212C68.4506 101.924 67.3946 101.78 66.2426 101.78ZM97.6287 125H94.3887V113.012H81.2127V125H77.9727V99.296H81.2127V110.168H94.3887V99.296H97.6287V125ZM127.084 112.112C127.084 114.776 126.628 117.104 125.716 119.096C124.828 121.064 123.508 122.6 121.756 123.704C120.004 124.808 117.832 125.36 115.24 125.36C112.576 125.36 110.356 124.808 108.58 123.704C106.828 122.6 105.52 121.052 104.656 119.06C103.792 117.068 103.36 114.74 103.36 112.076C103.36 109.436 103.792 107.132 104.656 105.164C105.52 103.196 106.828 101.66 108.58 100.556C110.356 99.452 112.588 98.9 115.276 98.9C117.844 98.9 120.004 99.452 121.756 100.556C123.508 101.636 124.828 103.172 125.716 105.164C126.628 107.132 127.084 109.448 127.084 112.112ZM106.78 112.112C106.78 115.352 107.464 117.908 108.832 119.78C110.2 121.628 112.336 122.552 115.24 122.552C118.168 122.552 120.304 121.628 121.648 119.78C122.992 117.908 123.664 115.352 123.664 112.112C123.664 108.872 122.992 106.34 121.648 104.516C120.304 102.668 118.18 101.744 115.276 101.744C112.372 101.744 110.224 102.668 108.832 104.516C107.464 106.34 106.78 108.872 106.78 112.112ZM155.209 112.112C155.209 114.776 154.753 117.104 153.841 119.096C152.953 121.064 151.633 122.6 149.881 123.704C148.129 124.808 145.957 125.36 143.365 125.36C140.701 125.36 138.481 124.808 136.705 123.704C134.953 122.6 133.645 121.052 132.781 119.06C131.917 117.068 131.485 114.74 131.485 112.076C131.485 109.436 131.917 107.132 132.781 105.164C133.645 103.196 134.953 101.66 136.705 100.556C138.481 99.452 140.713 98.9 143.401 98.9C145.969 98.9 148.129 99.452 149.881 100.556C151.633 101.636 152.953 103.172 153.841 105.164C154.753 107.132 155.209 109.448 155.209 112.112ZM134.905 112.112C134.905 115.352 135.589 117.908 136.957 119.78C138.325 121.628 140.461 122.552 143.365 122.552C146.293 122.552 148.429 121.628 149.773 119.78C151.117 117.908 151.789 115.352 151.789 112.112C151.789 108.872 151.117 106.34 149.773 104.516C148.429 102.668 146.305 101.744 143.401 101.744C140.497 101.744 138.349 102.668 136.957 104.516C135.589 106.34 134.905 108.872 134.905 112.112ZM160.906 125V99.296H164.146V122.12H175.378V125H160.906Z" fill="black"/>
</svg>
