<svg width="453" height="453" viewBox="0 0 453 453" fill="none" xmlns="http://www.w3.org/2000/svg">
<g filter="url(#filter0_d)">
<circle cx="226.5" cy="222.5" r="220" stroke="black" stroke-width="5"/>
</g>
<path d="M145.602 116.184C139.812 114.52 135.594 112.48 132.945 110.066C130.32 107.629 129.008 104.629 129.008 101.066C129.008 97.0352 130.613 93.707 133.824 91.082C137.059 88.4336 141.254 87.1094 146.41 87.1094C149.926 87.1094 153.055 87.7891 155.797 89.1484C158.562 90.5078 160.695 92.3828 162.195 94.7734C163.719 97.1641 164.48 99.7773 164.48 102.613H157.695C157.695 99.5195 156.711 97.0938 154.742 95.3359C152.773 93.5547 149.996 92.6641 146.41 92.6641C143.082 92.6641 140.48 93.4023 138.605 94.8789C136.754 96.332 135.828 98.3594 135.828 100.961C135.828 103.047 136.707 104.816 138.465 106.27C140.246 107.699 143.258 109.012 147.5 110.207C151.766 111.402 155.094 112.727 157.484 114.18C159.898 115.609 161.68 117.285 162.828 119.207C164 121.129 164.586 123.391 164.586 125.992C164.586 130.141 162.969 133.469 159.734 135.977C156.5 138.461 152.176 139.703 146.762 139.703C143.246 139.703 139.965 139.035 136.918 137.699C133.871 136.34 131.516 134.488 129.852 132.145C128.211 129.801 127.391 127.141 127.391 124.164H134.176C134.176 127.258 135.312 129.707 137.586 131.512C139.883 133.293 142.941 134.184 146.762 134.184C150.324 134.184 153.055 133.457 154.953 132.004C156.852 130.551 157.801 128.57 157.801 126.062C157.801 123.555 156.922 121.621 155.164 120.262C153.406 118.879 150.219 117.52 145.602 116.184ZM188.035 139.703C182.879 139.703 178.684 138.016 175.449 134.641C172.215 131.242 170.598 126.707 170.598 121.035V119.84C170.598 116.066 171.312 112.703 172.742 109.75C174.195 106.773 176.211 104.453 178.789 102.789C181.391 101.102 184.203 100.258 187.227 100.258C192.172 100.258 196.016 101.887 198.758 105.145C201.5 108.402 202.871 113.066 202.871 119.137V121.844H177.102C177.195 125.594 178.285 128.629 180.371 130.949C182.48 133.246 185.152 134.395 188.387 134.395C190.684 134.395 192.629 133.926 194.223 132.988C195.816 132.051 197.211 130.809 198.406 129.262L202.379 132.355C199.191 137.254 194.41 139.703 188.035 139.703ZM187.227 105.602C184.602 105.602 182.398 106.562 180.617 108.484C178.836 110.383 177.734 113.055 177.312 116.5H196.367V116.008C196.18 112.703 195.289 110.148 193.695 108.344C192.102 106.516 189.945 105.602 187.227 105.602ZM216.582 100.961L216.793 105.742C219.699 102.086 223.496 100.258 228.184 100.258C236.223 100.258 240.277 104.793 240.348 113.863V139H233.844V113.828C233.82 111.086 233.188 109.059 231.945 107.746C230.727 106.434 228.816 105.777 226.215 105.777C224.105 105.777 222.254 106.34 220.66 107.465C219.066 108.59 217.824 110.066 216.934 111.895V139H210.43V100.961H216.582ZM257.223 139H250.719V100.961H257.223V139ZM250.191 90.8711C250.191 89.8164 250.508 88.9258 251.141 88.1992C251.797 87.4727 252.758 87.1094 254.023 87.1094C255.289 87.1094 256.25 87.4727 256.906 88.1992C257.562 88.9258 257.891 89.8164 257.891 90.8711C257.891 91.9258 257.562 92.8047 256.906 93.5078C256.25 94.2109 255.289 94.5625 254.023 94.5625C252.758 94.5625 251.797 94.2109 251.141 93.5078C250.508 92.8047 250.191 91.9258 250.191 90.8711ZM265.941 119.629C265.941 115.902 266.668 112.551 268.121 109.574C269.598 106.598 271.637 104.301 274.238 102.684C276.863 101.066 279.852 100.258 283.203 100.258C288.383 100.258 292.566 102.051 295.754 105.637C298.965 109.223 300.57 113.992 300.57 119.945V120.402C300.57 124.105 299.855 127.434 298.426 130.387C297.02 133.316 294.992 135.602 292.344 137.242C289.719 138.883 286.695 139.703 283.273 139.703C278.117 139.703 273.934 137.91 270.723 134.324C267.535 130.738 265.941 125.992 265.941 120.086V119.629ZM272.48 120.402C272.48 124.621 273.453 128.008 275.398 130.562C277.367 133.117 279.992 134.395 283.273 134.395C286.578 134.395 289.203 133.105 291.148 130.527C293.094 127.926 294.066 124.293 294.066 119.629C294.066 115.457 293.07 112.082 291.078 109.504C289.109 106.902 286.484 105.602 283.203 105.602C279.992 105.602 277.402 106.879 275.434 109.434C273.465 111.988 272.48 115.645 272.48 120.402ZM327.113 106.797C326.129 106.633 325.062 106.551 323.914 106.551C319.648 106.551 316.754 108.367 315.23 112V139H308.727V100.961H315.055L315.16 105.355C317.293 101.957 320.316 100.258 324.23 100.258C325.496 100.258 326.457 100.422 327.113 100.75V106.797ZM105.172 200.395H83.6914V223H76.9414V171.812H108.652V177.367H83.6914V194.875H105.172V200.395ZM138.43 219.238C135.898 222.215 132.184 223.703 127.285 223.703C123.23 223.703 120.137 222.531 118.004 220.188C115.895 217.82 114.828 214.328 114.805 209.711V184.961H121.309V209.535C121.309 215.301 123.652 218.184 128.34 218.184C133.309 218.184 136.613 216.332 138.254 212.629V184.961H144.758V223H138.57L138.43 219.238ZM161.738 223H155.234V169H161.738V223ZM179.246 223H172.742V169H179.246V223ZM203.223 203.91H186.066V198.602H203.223V203.91ZM231.734 212.91C231.734 211.152 231.066 209.793 229.73 208.832C228.418 207.848 226.109 207.004 222.805 206.301C219.523 205.598 216.91 204.754 214.965 203.77C213.043 202.785 211.613 201.613 210.676 200.254C209.762 198.895 209.305 197.277 209.305 195.402C209.305 192.285 210.617 189.648 213.242 187.492C215.891 185.336 219.266 184.258 223.367 184.258C227.68 184.258 231.172 185.371 233.844 187.598C236.539 189.824 237.887 192.672 237.887 196.141H231.348C231.348 194.359 230.586 192.824 229.062 191.535C227.562 190.246 225.664 189.602 223.367 189.602C221 189.602 219.148 190.117 217.812 191.148C216.477 192.18 215.809 193.527 215.809 195.191C215.809 196.762 216.43 197.945 217.672 198.742C218.914 199.539 221.152 200.301 224.387 201.027C227.645 201.754 230.281 202.621 232.297 203.629C234.312 204.637 235.801 205.855 236.762 207.285C237.746 208.691 238.238 210.414 238.238 212.453C238.238 215.852 236.879 218.582 234.16 220.645C231.441 222.684 227.914 223.703 223.578 223.703C220.531 223.703 217.836 223.164 215.492 222.086C213.148 221.008 211.309 219.508 209.973 217.586C208.66 215.641 208.004 213.543 208.004 211.293H214.508C214.625 213.473 215.492 215.207 217.109 216.496C218.75 217.762 220.906 218.395 223.578 218.395C226.039 218.395 228.008 217.902 229.484 216.918C230.984 215.91 231.734 214.574 231.734 212.91ZM255.535 175.75V184.961H262.637V189.988H255.535V213.578C255.535 215.102 255.852 216.25 256.484 217.023C257.117 217.773 258.195 218.148 259.719 218.148C260.469 218.148 261.5 218.008 262.812 217.727V223C261.102 223.469 259.438 223.703 257.82 223.703C254.914 223.703 252.723 222.824 251.246 221.066C249.77 219.309 249.031 216.812 249.031 213.578V189.988H242.105V184.961H249.031V175.75H255.535ZM293.75 223C293.375 222.25 293.07 220.914 292.836 218.992C289.812 222.133 286.203 223.703 282.008 223.703C278.258 223.703 275.176 222.648 272.762 220.539C270.371 218.406 269.176 215.711 269.176 212.453C269.176 208.492 270.676 205.422 273.676 203.242C276.699 201.039 280.941 199.938 286.402 199.938H292.73V196.949C292.73 194.676 292.051 192.871 290.691 191.535C289.332 190.176 287.328 189.496 284.68 189.496C282.359 189.496 280.414 190.082 278.844 191.254C277.273 192.426 276.488 193.844 276.488 195.508H269.949C269.949 193.609 270.617 191.781 271.953 190.023C273.312 188.242 275.141 186.836 277.438 185.805C279.758 184.773 282.301 184.258 285.066 184.258C289.449 184.258 292.883 185.359 295.367 187.562C297.852 189.742 299.141 192.754 299.234 196.598V214.105C299.234 217.598 299.68 220.375 300.57 222.438V223H293.75ZM282.957 218.043C284.996 218.043 286.93 217.516 288.758 216.461C290.586 215.406 291.91 214.035 292.73 212.348V204.543H287.633C279.664 204.543 275.68 206.875 275.68 211.539C275.68 213.578 276.359 215.172 277.719 216.32C279.078 217.469 280.824 218.043 282.957 218.043ZM324.688 218.395C327.008 218.395 329.035 217.691 330.77 216.285C332.504 214.879 333.465 213.121 333.652 211.012H339.805C339.688 213.191 338.938 215.266 337.555 217.234C336.172 219.203 334.32 220.773 332 221.945C329.703 223.117 327.266 223.703 324.688 223.703C319.508 223.703 315.383 221.98 312.312 218.535C309.266 215.066 307.742 210.332 307.742 204.332V203.242C307.742 199.539 308.422 196.246 309.781 193.363C311.141 190.48 313.086 188.242 315.617 186.648C318.172 185.055 321.184 184.258 324.652 184.258C328.918 184.258 332.457 185.535 335.27 188.09C338.105 190.645 339.617 193.961 339.805 198.039H333.652C333.465 195.578 332.527 193.562 330.84 191.992C329.176 190.398 327.113 189.602 324.652 189.602C321.348 189.602 318.781 190.797 316.953 193.188C315.148 195.555 314.246 198.988 314.246 203.488V204.719C314.246 209.102 315.148 212.477 316.953 214.844C318.758 217.211 321.336 218.395 324.688 218.395ZM357.734 205.387L353.656 209.641V223H347.152V169H353.656V201.66L357.137 197.477L368.984 184.961H376.895L362.094 200.852L378.617 223H370.988L357.734 205.387ZM76.9414 307V255.812H91.3906C95.8438 255.812 99.7812 256.797 103.203 258.766C106.625 260.734 109.262 263.535 111.113 267.168C112.988 270.801 113.938 274.973 113.961 279.684V282.953C113.961 287.781 113.023 292.012 111.148 295.645C109.297 299.277 106.637 302.066 103.168 304.012C99.7227 305.957 95.7031 306.953 91.1094 307H76.9414ZM83.6914 261.367V301.48H90.793C95.9961 301.48 100.039 299.863 102.922 296.629C105.828 293.395 107.281 288.789 107.281 282.812V279.824C107.281 274.012 105.91 269.5 103.168 266.289C100.449 263.055 96.582 261.414 91.5664 261.367H83.6914ZM138.957 307.703C133.801 307.703 129.605 306.016 126.371 302.641C123.137 299.242 121.52 294.707 121.52 289.035V287.84C121.52 284.066 122.234 280.703 123.664 277.75C125.117 274.773 127.133 272.453 129.711 270.789C132.312 269.102 135.125 268.258 138.148 268.258C143.094 268.258 146.938 269.887 149.68 273.145C152.422 276.402 153.793 281.066 153.793 287.137V289.844H128.023C128.117 293.594 129.207 296.629 131.293 298.949C133.402 301.246 136.074 302.395 139.309 302.395C141.605 302.395 143.551 301.926 145.145 300.988C146.738 300.051 148.133 298.809 149.328 297.262L153.301 300.355C150.113 305.254 145.332 307.703 138.957 307.703ZM138.148 273.602C135.523 273.602 133.32 274.562 131.539 276.484C129.758 278.383 128.656 281.055 128.234 284.5H147.289V284.008C147.102 280.703 146.211 278.148 144.617 276.344C143.023 274.516 140.867 273.602 138.148 273.602ZM173.41 298.176L182.832 268.961H189.477L175.836 307H170.879L157.098 268.961H163.742L173.41 298.176ZM211.027 307.703C205.871 307.703 201.676 306.016 198.441 302.641C195.207 299.242 193.59 294.707 193.59 289.035V287.84C193.59 284.066 194.305 280.703 195.734 277.75C197.188 274.773 199.203 272.453 201.781 270.789C204.383 269.102 207.195 268.258 210.219 268.258C215.164 268.258 219.008 269.887 221.75 273.145C224.492 276.402 225.863 281.066 225.863 287.137V289.844H200.094C200.188 293.594 201.277 296.629 203.363 298.949C205.473 301.246 208.145 302.395 211.379 302.395C213.676 302.395 215.621 301.926 217.215 300.988C218.809 300.051 220.203 298.809 221.398 297.262L225.371 300.355C222.184 305.254 217.402 307.703 211.027 307.703ZM210.219 273.602C207.594 273.602 205.391 274.562 203.609 276.484C201.828 278.383 200.727 281.055 200.305 284.5H219.359V284.008C219.172 280.703 218.281 278.148 216.688 276.344C215.094 274.516 212.938 273.602 210.219 273.602ZM240.488 307H233.984V253H240.488V307ZM249.207 287.629C249.207 283.902 249.934 280.551 251.387 277.574C252.863 274.598 254.902 272.301 257.504 270.684C260.129 269.066 263.117 268.258 266.469 268.258C271.648 268.258 275.832 270.051 279.02 273.637C282.23 277.223 283.836 281.992 283.836 287.945V288.402C283.836 292.105 283.121 295.434 281.691 298.387C280.285 301.316 278.258 303.602 275.609 305.242C272.984 306.883 269.961 307.703 266.539 307.703C261.383 307.703 257.199 305.91 253.988 302.324C250.801 298.738 249.207 293.992 249.207 288.086V287.629ZM255.746 288.402C255.746 292.621 256.719 296.008 258.664 298.562C260.633 301.117 263.258 302.395 266.539 302.395C269.844 302.395 272.469 301.105 274.414 298.527C276.359 295.926 277.332 292.293 277.332 287.629C277.332 283.457 276.336 280.082 274.344 277.504C272.375 274.902 269.75 273.602 266.469 273.602C263.258 273.602 260.668 274.879 258.699 277.434C256.73 279.988 255.746 283.645 255.746 288.402ZM324.125 288.402C324.125 294.191 322.801 298.855 320.152 302.395C317.504 305.934 313.918 307.703 309.395 307.703C304.777 307.703 301.145 306.238 298.496 303.309V321.625H291.992V268.961H297.934L298.25 273.18C300.898 269.898 304.578 268.258 309.289 268.258C313.859 268.258 317.469 269.98 320.117 273.426C322.789 276.871 324.125 281.664 324.125 287.805V288.402ZM317.621 287.664C317.621 283.375 316.707 279.988 314.879 277.504C313.051 275.02 310.543 273.777 307.355 273.777C303.418 273.777 300.465 275.523 298.496 279.016V297.191C300.441 300.66 303.418 302.395 307.426 302.395C310.543 302.395 313.016 301.164 314.844 298.703C316.695 296.219 317.621 292.539 317.621 287.664ZM348.207 307.703C343.051 307.703 338.855 306.016 335.621 302.641C332.387 299.242 330.77 294.707 330.77 289.035V287.84C330.77 284.066 331.484 280.703 332.914 277.75C334.367 274.773 336.383 272.453 338.961 270.789C341.562 269.102 344.375 268.258 347.398 268.258C352.344 268.258 356.188 269.887 358.93 273.145C361.672 276.402 363.043 281.066 363.043 287.137V289.844H337.273C337.367 293.594 338.457 296.629 340.543 298.949C342.652 301.246 345.324 302.395 348.559 302.395C350.855 302.395 352.801 301.926 354.395 300.988C355.988 300.051 357.383 298.809 358.578 297.262L362.551 300.355C359.363 305.254 354.582 307.703 348.207 307.703ZM347.398 273.602C344.773 273.602 342.57 274.562 340.789 276.484C339.008 278.383 337.906 281.055 337.484 284.5H356.539V284.008C356.352 280.703 355.461 278.148 353.867 276.344C352.273 274.516 350.117 273.602 347.398 273.602ZM388.988 274.797C388.004 274.633 386.938 274.551 385.789 274.551C381.523 274.551 378.629 276.367 377.105 280V307H370.602V268.961H376.93L377.035 273.355C379.168 269.957 382.191 268.258 386.105 268.258C387.371 268.258 388.332 268.422 388.988 268.75V274.797Z" fill="black"/>
<defs>
<filter id="filter0_d" x="0" y="0" width="453" height="453" filterUnits="userSpaceOnUse" color-interpolation-filters="sRGB">
<feFlood flood-opacity="0" result="BackgroundImageFix"/>
<feColorMatrix in="SourceAlpha" type="matrix" values="0 0 0 0 0 0 0 0 0 0 0 0 0 0 0 0 0 0 127 0"/>
<feOffset dy="4"/>
<feGaussianBlur stdDeviation="2"/>
<feColorMatrix type="matrix" values="0 0 0 0 0 0 0 0 0 0 0 0 0 0 0 0 0 0 0.25 0"/>
<feBlend mode="normal" in2="BackgroundImageFix" result="effect1_dropShadow"/>
<feBlend mode="normal" in="SourceGraphic" in2="effect1_dropShadow" result="shape"/>
</filter>
</defs>
</svg>
